**ABCDEFGHIJKLMNOPQRSTUVWXYZabcdefghijklmnopqrstuvwxyz**************************
**PARASOLID !"#$%&'()*+,-./:;<=>?@[\]^_`{|}~0123456789**************************
**PART1;
MC=AMD64;
MC_MODEL=Intel64 Family 6 Model 55 Stepping 8, GenuineIntel;
MC_ID=unknown;
OS=Windows_NT;
OS_RELEASE=unknown;
FRU=Parasolid Version 29.0, build 195, 12- 2-2016;
APPL=SOLIDWORKS 2017-2017033;
SITE=;
USER=unknown;
FORMAT=text;
GUISE=transmit;
KEY=dice;
FILE=dice.x_t;
DATE=Mon Jan 15 16:52:23 2018;
**PART2;
SCH=SCH_2900195_28101;
USFLD_SIZE=0;
**PART3;
**END_OF_HEADER*****************************************************************
T51 : TRANSMIT FILE created by modeller version 290019523 SCH_2900195_28101_1300
6203 0 12 33 CCCCCCI4 mesh1006 0 I8 polyline1008 0 CCCCCCCDI5 owner1040 0 CCCCCC
I13 boundary_mesh1006 0 I17 boundary_polyline1008 0 CCCA16 index_map_offset0 0 1
 dA9 index_map82 0 A17 node_id_index_map82 0 A20 schema_embedding_map82 0 A5 chi
ld12 0 A14 lowest_node_id0 0 1 dZ1 1262 2 3 0 0 0 0 0 0 1e3 1e-8 0 4 0 1 0 1 1 5
 6 7 8 0 0 9 10 11 0 0 0 0 0 0 81 255 2 2 957 12 1 0 0 0 0 13 0 70 11 CI9 list_t
ype0 0 1 uI10 notransmit0 0 1 lCCCDCCDI12 finger_index0 0 1 dI12 finger_block101
2 0 CZ3 0 4 T1 0 0 3 20 1 14 14 13 255 5 94 0 1 0 15 0 0 16 0 50 255 6 89 0 15 1
7 0 0 +.05 .1 .05 0 0 1 1 0 0 30 255 7 93 0 18 19 0 0 +-.05 .1 .05 0 -1 0 29 255
 8 70 0 20 21 0 .05 0 .05 19 8 CCCCCCCA5 owner12 0 Z9 28 0 1 16 0 22 V0 16 255 1
0 74 0 ?23 0 24 25 0 0 1 18 255 11 25 0 26 0 27 28 ?1 17 255 26 0 29 30 31 11 23
 10 0 32 -18 27 22 0 33 11 34 35 ?1 29 28 27 0 11 35 36 .05 .1 .05 29 35 24 0 27
 37 28 .05 .1 -.05 29 36 73 0 38 28 39 -.05 0 .05 18 38 64 0 40 41 0 36 ?1 29 39
 72 0 41 36 21 -.05 0 -.05 18 41 63 0 42 43 38 39 ?1 29 21 71 0 43 39 8 .05 0 -.
05 18 43 62 0 44 20 41 21 ?1 17 44 0 45 46 23 43 47 48 0 49 +18 20 61 0 23 50 43
 8 ?1 17 23 0 45 44 32 20 26 10 0 47 +18 50 16 0 51 34 20 52 ?1 17 51 0 53 54 55
 50 40 18 0 56 -18 34 19 0 57 27 50 37 ?1 29 52 18 0 50 0 37 -.05 .1 .05 29 37 2
1 0 34 52 35 -.05 .1 -.05 17 57 0 58 56 33 34 59 60 0 61 +15 255 58 3 0 62 63 0
 17 56 0 58 62 57 50 54 64 0 30 -17 33 0 58 57 62 27 32 65 0 46 +17 59 0 66 49 6
1 27 57 60 0 0 -16 60 10 0 ?57 65 64 67 0 0 1 17 61 0 66 59 68 34 42 69 0 54 -15
 66 80 0 68 70 0 17 68 0 66 61 49 41 71 72 0 73 +17 42 0 53 55 54 41 61 69 0 68
 +16 69 76 0 ?42 24 18 19 0 0 1 17 54 0 53 42 51 34 56 64 0 0 +15 53 82 0 55 74
 0 16 64 7 0 ?54 60 75 76 0 0 1 16 75 4 0 ?30 64 48 77 0 0 1 30 76 8 0 64 77 67
 0 +-.05 .1 .05 0 0 -1 30 77 5 0 75 78 76 0 +.05 .1 .05 -1 0 0 30 67 11 0 60 76
 79 0 +.05 .1 -.05 -1 0 0 30 79 14 0 65 67 80 0 +.05 .1 .05 0 0 -1 16 65 13 0 ?3
3 18 60 79 0 0 1 30 80 69 0 81 79 82 0 +.05 0 .05 -1 0 0 16 81 57 0 ?83 84 85 80
 0 0 1 30 82 68 0 84 80 86 0 +-.05 0 .05 0 0 -1 16 84 53 0 ?73 72 81 82 0 0 1 30
 86 67 0 72 82 87 0 +.05 0 -.05 -1 0 0 16 72 49 0 ?68 48 84 86 0 0 1 30 87 66 0
 48 86 25 0 +.05 0 .05 0 0 -1 16 48 45 0 ?44 75 72 87 0 0 1 30 25 90 0 10 87 88
 0 +.05 .1 .05 0 -1 0 30 88 91 0 24 25 19 0 +.05 .1 -.05 0 -1 0 16 24 75 0 ?49 1
0 69 88 0 0 1 30 19 92 0 69 88 7 0 +-.05 .1 -.05 0 -1 0 17 49 0 66 68 59 43 46 2
4 0 71 +17 46 0 45 32 44 27 49 24 0 59 -17 71 0 89 47 73 43 68 72 0 0 -15 89 44
 0 83 90 0 17 47 0 89 83 71 20 44 48 0 31 -17 73 0 89 71 83 41 55 84 0 0 +17 83
 0 89 73 47 38 31 81 0 0 +17 55 0 53 51 42 38 73 84 0 83 -17 31 0 29 26 40 20 83
 81 0 0 -15 29 84 0 31 15 0 17 40 0 29 31 30 38 51 18 0 55 +17 30 0 29 40 26 50
 62 75 0 0 +16 18 77 0 ?40 69 65 7 0 0 1 17 62 0 58 33 56 11 30 75 0 0 -14 255 1
5 85 91 ?92 0 93 5 6 +0 0 92 0 22 81 1 91 1215 94 15 95 0 0 96 97 14 92 79 96 ?7
0 15 98 5 99 -0 0 70 15 22 15 93 188 0 100 15 101 13 22 29 0 0 0 0 0 0 9 15 17 1
00 0 93 100 100 0 102 103 0 0 -15 101 182 0 104 15 105 17 104 0 101 104 104 0 10
6 107 0 0 -15 105 176 0 108 15 29 17 108 0 105 108 108 0 109 110 0 0 -17 109 0 1
11 109 109 0 108 110 0 0 +16 110 232 0 ?109 112 113 114 0 0 1 16 112 211 0 ?115
 107 110 116 0 0 1 16 113 229 0 ?117 110 118 119 0 0 1 31 255 114 262 0 110 116
 119 0 +-.02474873734152915 .02525126265847085 .05 0 0 1 1 0 0 .01 31 116 263 0
 112 120 114 0 +0 .05 .04 0 0 1 1 0 0 .01 31 119 261 0 113 114 121 0 +-.02474873
734152915 .02525126265847085 .04 0 0 1 1 0 0 .01 31 121 162 0 85 119 78 0 +0 .09
 0 0 1 0 0 0 1 .015 16 85 139 0 ?122 81 123 121 0 0 1 31 78 161 0 123 121 77 0 +
0 .1 0 0 1 0 0 0 1 .015 16 123 142 0 ?124 85 125 78 0 0 1 17 124 0 126 124 124 0
 127 123 0 0 +16 125 193 0 ?128 123 103 129 0 0 1 17 128 0 130 128 128 0 131 125
 0 0 +16 103 196 0 ?102 125 107 132 0 0 1 31 129 266 0 125 133 132 0 +.024748737
34152915 .0747487373415292 .04 0 0 1 1 0 0 .01 31 133 349 0 134 135 129 0 +-.04
 .0669705627484772 -.01697056274847715 -1 0 0 0 0 1 .013 31 132 265 0 103 129 12
0 0 +.02474873734152915 .0747487373415292 .05 0 0 1 1 0 0 .01 31 120 264 0 107 1
32 116 0 +0 .05 .05 0 0 1 1 0 0 .01 16 107 214 0 ?106 103 112 120 0 0 1 17 106 0
 136 106 106 0 104 107 0 0 +15 136 221 0 106 137 0 14 137 217 138 ?139 140 141 5
 142 -0 0 139 140 22 81 1 138 1217 94 137 143 0 96 144 145 14 139 222 144 ?146 1
37 147 5 148 +0 0 146 137 22 14 140 240 149 ?137 150 151 5 152 +0 0 137 150 22 1
5 141 220 0 153 137 136 51 255 142 257 0 137 154 148 0 +0 .05 .04 0 0 1 .01 1 0
 0 51 154 258 0 146 155 142 0 +.02474873734152915 .0747487373415292 .04 0 0 1 .0
1 1 0 0 50 148 255 0 139 142 156 0 +0 .05 .04 0 0 1 1 0 0 51 156 254 0 150 148 1
52 0 +-.02474873734152915 .02525126265847085 .04 0 0 1 .01 1 0 0 14 150 235 157
 ?140 158 159 5 156 -0 0 140 158 22 50 152 252 0 140 156 160 0 +-.02474873734152
915 .02525126265847085 .04 0 0 1 1 0 0 50 160 160 0 158 152 161 0 +0 .09 0 0 1 0
 0 0 1 14 158 150 162 ?150 163 164 5 160 +0 0 150 163 22 51 161 158 0 163 160 16
5 0 +0 .09 0 0 1 0 .015 0 0 1 14 163 145 166 ?158 90 167 5 161 -0 0 158 90 22 50
 165 2 0 63 161 168 0 +0 .1 0 0 -1 0 0 0 -1 14 63 1 169 ?90 74 170 5 165 -0 0 90
 74 22 50 168 65 0 90 165 99 0 +0 0 0 0 -1 0 0 0 -1 14 90 43 171 ?163 63 172 5 1
68 +0 0 163 63 22 50 99 86 0 92 168 173 0 +.05 .1 .05 -1 0 0 0 0 1 50 173 87 0 7
0 99 17 0 +.05 .1 -.05 0 0 1 1 0 0 14 70 81 174 ?74 92 175 5 173 -0 0 74 92 22 5
0 17 88 0 74 173 6 0 +-.05 .1 .05 -1 0 0 0 0 1 14 74 83 176 ?63 70 177 5 17 +0 0
 63 70 22 81 1 176 1226 94 74 178 0 174 179 180 15 177 299 0 181 74 182 17 181 0
 177 181 181 0 183 184 0 0 -15 182 293 0 185 74 53 17 185 0 182 185 185 0 186 18
7 0 0 -17 186 0 188 186 186 0 185 187 0 0 +16 187 325 0 ?186 184 134 135 0 0 1 1
6 184 307 0 ?183 118 187 189 0 0 1 16 134 322 0 ?190 187 191 133 0 0 1 31 135 35
0 0 187 189 133 0 +-.05 .0669705627484772 -.01697056274847715 -1 0 0 0 0 1 .013
 31 189 351 0 184 192 135 0 +-.05 .03302943725152285 .01697056274847715 -1 0 0 0
 0 1 .013 31 192 352 0 118 193 189 0 +-.04 .03302943725152285 .01697056274847715
 -1 0 0 0 0 1 .013 16 118 304 0 ?194 113 184 192 0 0 1 31 193 486 0 195 196 192
 0 +.05 .025 -.025 1 0 0 0 0 -1 .0125 16 195 452 0 ?197 191 198 193 0 0 1 31 196
 487 0 191 199 193 0 +.04 .025 -.025 1 0 0 0 0 -1 .0125 16 191 449 0 ?200 134 19
5 196 0 0 1 31 199 488 0 201 202 196 0 +.04 .025 .025 1 0 0 0 0 -1 .0125 16 201
 395 0 ?203 204 205 199 0 0 1 31 202 489 0 204 206 199 0 +.05 .025 .025 1 0 0 0
 0 -1 .0125 16 204 398 0 ?207 208 201 202 0 0 1 31 206 490 0 208 209 202 0 +.04
 .075 .025 1 0 0 0 0 -1 .0125 16 208 413 0 ?210 211 204 206 0 0 1 31 209 491 0 2
11 212 206 0 +.05 .075 .025 1 0 0 0 0 -1 .0125 16 211 416 0 ?213 214 208 209 0 0
 1 31 212 492 0 214 215 209 0 +.04 .075 -.025 1 0 0 0 0 -1 .0125 16 214 431 0 ?2
16 198 211 212 0 0 1 31 215 493 0 198 217 212 0 +.05 .075 -.025 1 0 0 0 0 -1 .01
25 16 198 434 0 ?218 195 214 215 0 0 1 31 217 674 0 219 220 215 0 +0 .05 -.05 0
 0 -1 -1 0 0 .01 16 219 635 0 ?221 205 222 217 0 0 1 31 220 675 0 205 223 217 0
 +0 .05 -.04 0 0 -1 -1 0 0 .01 16 205 632 0 ?224 201 219 220 0 0 1 31 223 676 0
 225 226 220 0 +.0275 .0225 -.05 0 0 -1 -1 0 0 .01 16 225 563 0 ?227 228 229 223
 0 0 1 31 226 677 0 228 230 223 0 +.0275 .0225 -.04 0 0 -1 -1 0 0 .01 16 228 560
 0 ?231 232 225 226 0 0 1 31 230 678 0 232 233 226 0 +-.0275 .0225 -.05 0 0 -1 -
1 0 0 .01 16 232 581 0 ?234 235 228 230 0 0 1 31 233 679 0 235 236 230 0 +-.0275
 .0225 -.04 0 0 -1 -1 0 0 .01 16 235 578 0 ?237 238 232 233 0 0 1 31 236 680 0 2
38 239 233 0 +-.0275 .0775 -.05 0 0 -1 -1 0 0 .01 16 238 599 0 ?240 241 235 236
 0 0 1 31 239 681 0 241 242 236 0 +-.0275 .0775 -.04 0 0 -1 -1 0 0 .01 16 241 59
6 0 ?243 244 238 239 0 0 1 31 242 682 0 244 245 239 0 +.0275 .0775 -.05 0 0 -1 -
1 0 0 .01 16 244 617 0 ?246 222 241 242 0 0 1 31 245 683 0 222 247 242 0 +.0275
 .0775 -.04 0 0 -1 -1 0 0 .01 16 222 614 0 ?248 219 244 245 0 0 1 31 247 900 0 2
49 250 245 0 +.01667 0 0 0 -1 0 0 0 -1 .01 16 249 856 0 ?251 229 252 247 0 0 1 3
1 250 901 0 229 253 247 0 +.01667 .01 0 0 -1 0 0 0 -1 .01 16 229 853 0 ?254 225
 249 250 0 0 1 31 253 902 0 255 256 250 0 +.01667 0 .025 0 -1 0 0 0 -1 .01 16 25
5 820 0 ?257 258 259 253 0 0 1 31 256 903 0 258 260 253 0 +.01667 .01 .025 0 -1
 0 0 0 -1 .01 16 258 817 0 ?261 262 255 256 0 0 1 31 260 904 0 262 263 256 0 +.0
1667 0 -.025 0 -1 0 0 0 -1 .01 16 262 802 0 ?264 265 258 260 0 0 1 31 263 905 0
 265 266 260 0 +.01667 .01 -.025 0 -1 0 0 0 -1 .01 16 265 799 0 ?267 268 262 263
 0 0 1 31 266 906 0 268 269 263 0 +-.01667 0 -.025 0 -1 0 0 0 -1 .01 16 268 784
 0 ?270 271 265 266 0 0 1 31 269 907 0 271 272 266 0 +-.01667 .01 -.025 0 -1 0 0
 0 -1 .01 16 271 781 0 ?273 274 268 269 0 0 1 31 272 908 0 274 275 269 0 +-.0166
7 0 0 0 -1 0 0 0 -1 .01 16 274 766 0 ?276 252 271 272 0 0 1 31 275 909 0 252 277
 272 0 +-.01667 .01 0 0 -1 0 0 0 -1 .01 16 252 763 0 ?278 249 274 275 0 0 1 31 2
77 910 0 279 280 275 0 +-.01667 0 .025 0 -1 0 0 0 -1 .01 16 279 838 0 ?281 259 0
 277 0 0 1 31 280 911 0 259 0 277 0 +-.01667 .01 .025 0 -1 0 0 0 -1 .01 16 259 8
35 0 ?282 255 279 280 0 0 1 17 282 0 283 282 282 0 284 259 0 0 +15 283 848 0 282
 285 0 17 284 0 286 284 284 0 282 259 0 0 -15 286 844 0 284 287 288 14 287 841 1
79 ?285 289 286 5 290 -0 0 285 289 22 15 288 845 0 281 287 0 17 281 0 288 281 28
1 0 291 279 0 0 +17 291 0 292 291 291 0 281 279 0 0 -15 292 734 0 291 90 293 15
 293 728 0 294 90 89 17 294 0 293 294 294 0 251 249 0 0 -17 251 0 295 251 251 0
 294 249 0 0 +15 295 863 0 251 296 0 14 296 859 297 ?289 298 299 5 300 -0 0 289
 298 22 81 1 297 1228 94 296 301 0 179 302 303 14 289 864 302 ?287 296 304 5 305
 +0 0 287 296 22 14 298 571 306 ?296 307 308 5 309 +0 0 296 307 22 15 299 862 0
 310 296 295 51 300 882 0 296 305 311 0 +.01667 .01 0 0 -1 0 .01 0 0 -1 50 305 8
84 0 289 312 300 0 +.01667 .01 0 0 -1 0 0 0 -1 50 311 673 0 313 300 314 0 +.0275
 .0775 -.04 0 0 -1 -1 0 0 14 313 625 315 ?316 317 318 5 311 +0 0 316 317 22 51 3
14 671 0 317 311 319 0 +.0275 .0775 -.04 0 0 -1 .01 -1 0 0 14 317 620 320 ?313 3
21 322 5 314 -0 0 313 321 22 50 319 670 0 323 314 324 0 +-.0275 .0775 -.04 0 0 -
1 -1 0 0 14 323 607 325 ?326 316 327 5 319 +0 0 326 316 22 51 324 668 0 316 319
 328 0 +-.0275 .0775 -.04 0 0 -1 .01 -1 0 0 14 316 602 329 ?323 313 330 5 324 -0
 0 323 313 22 50 328 667 0 331 324 332 0 +-.0275 .0225 -.04 0 0 -1 -1 0 0 14 331
 589 333 ?307 326 334 5 328 +0 0 307 326 22 51 332 665 0 326 328 309 0 +-.0275 .
0225 -.04 0 0 -1 .01 -1 0 0 14 326 584 335 ?331 323 336 5 332 -0 0 331 323 22 50
 309 664 0 298 332 337 0 +.0275 .0225 -.04 0 0 -1 -1 0 0 51 337 662 0 307 309 33
8 0 +.0275 .0225 -.04 0 0 -1 .01 -1 0 0 14 307 566 339 ?298 331 340 5 337 -0 0 2
98 331 22 50 338 661 0 321 337 341 0 +0 .05 -.04 0 0 -1 -1 0 0 14 321 643 342 ?3
17 343 344 5 338 +0 0 317 343 22 51 341 659 0 343 338 345 0 +0 .05 -.04 0 0 -1 .
01 -1 0 0 14 343 638 346 ?321 347 348 5 341 -0 0 321 347 22 51 345 485 0 349 341
 350 0 +.04 .075 -.025 1 0 0 .0125 0 0 -1 14 349 437 351 ?352 353 354 5 345 -0 0
 352 353 22 50 350 483 0 352 345 355 0 +.04 .075 -.025 1 0 0 0 0 -1 14 352 442 3
56 ?357 349 358 5 350 +0 0 357 349 22 51 355 482 0 357 350 359 0 +.04 .075 .025
 1 0 0 .0125 0 0 -1 14 357 419 360 ?361 352 362 5 355 -0 0 361 352 22 50 359 480
 0 361 355 363 0 +.04 .075 .025 1 0 0 0 0 -1 14 361 424 364 ?365 357 366 5 359 +
0 0 365 357 22 51 363 479 0 365 359 367 0 +.04 .025 .025 1 0 0 .0125 0 0 -1 14 3
65 401 368 ?347 361 369 5 363 -0 0 347 361 22 50 367 477 0 347 363 370 0 +.04 .0
25 .025 1 0 0 0 0 -1 14 347 406 371 ?343 365 372 5 367 +0 0 343 365 22 50 370 47
6 0 353 367 373 0 +.04 .025 -.025 1 0 0 0 0 -1 14 353 460 374 ?349 375 376 5 370
 +0 0 349 375 22 51 373 474 0 375 370 377 0 +.04 .025 -.025 1 0 0 .0125 0 0 -1 1
4 375 455 378 ?353 379 380 5 373 -0 0 353 379 22 50 377 348 0 379 373 381 0 +-.0
4 .03302943725152285 .01697056274847715 -1 0 0 0 0 1 14 379 315 382 ?375 383 384
 5 377 +0 0 375 383 22 51 381 346 0 383 377 385 0 +-.04 .03302943725152285 .0169
7056274847715 -1 0 0 .013 0 0 1 14 383 310 386 ?379 387 388 5 381 -0 0 379 387 2
2 51 385 345 0 389 381 390 0 +-.04 .0669705627484772 -.01697056274847715 -1 0 0
 .013 0 0 1 14 389 328 391 ?387 392 393 5 385 -0 0 387 392 22 50 390 343 0 387 3
85 155 0 +-.04 .0669705627484772 -.01697056274847715 -1 0 0 0 0 1 14 387 333 394
 ?383 389 395 5 390 +0 0 383 389 22 50 155 260 0 392 390 154 0 +.024748737341529
15 .0747487373415292 .04 0 0 1 1 0 0 14 392 204 396 ?389 146 130 5 155 +0 0 389
 146 22 81 1 396 1252 94 392 397 0 394 398 399 14 146 199 398 ?392 139 400 5 154
 -0 0 392 139 22 15 130 206 0 128 392 0 81 1 398 1253 94 146 401 0 396 402 403 1
5 400 202 0 131 146 404 17 131 0 400 131 131 0 128 125 0 0 -15 404 203 0 102 146
 0 17 102 0 404 102 102 0 100 103 0 0 +80 255 1 94 405 406 9000 1 1 1 1 1 1 1 1
 0 FFFFTFTFFFFFFF1 81 1 401 1081 407 146 0 398 408 397 409 81 1 402 1254 94 285
 410 0 398 411 412 82 255 1 403 1916469382 14 285 846 402 ?413 287 283 5 414 +0
 0 413 287 22 81 1 410 1108 407 285 0 402 415 416 417 81 1 411 1255 94 413 416 0
 402 418 419 82 1 412 -1300561762 14 413 823 411 ?420 285 421 5 312 -0 0 420 285
 22 81 1 416 1109 407 413 0 411 410 422 423 81 1 418 1256 94 420 422 0 411 424 4
25 82 1 419 -1302527842 14 420 828 418 ?426 413 427 5 428 +0 0 426 413 22 81 1 4
22 1110 407 420 0 418 416 429 430 81 1 424 1257 94 426 429 0 418 431 432 82 1 42
5 -1304493922 14 426 805 424 ?433 420 434 5 435 -0 0 433 420 22 81 1 429 1111 40
7 426 0 424 422 436 437 81 1 431 1258 94 433 436 0 424 438 439 82 1 432 -1306460
002 14 433 810 431 ?440 426 441 5 442 +0 0 440 426 22 81 1 436 1112 407 433 0 43
1 429 443 444 81 1 438 1259 94 440 443 0 431 445 446 82 1 439 -1308426082 14 440
 787 438 ?447 433 448 5 449 -0 0 447 433 22 81 1 443 1113 407 440 0 438 436 450
 451 81 1 445 1260 94 447 450 0 438 452 453 82 1 446 -1310392162 14 447 792 445
 ?454 440 455 5 456 +0 0 454 440 22 81 1 450 1114 407 447 0 445 443 457 458 81 1
 452 1261 94 454 457 0 445 459 460 82 1 453 -1312358242 14 454 769 452 ?461 447
 462 5 463 -0 0 461 447 22 81 1 457 1115 407 454 0 452 450 464 465 81 1 459 1262
 94 461 464 0 452 0 466 82 1 460 -1314324322 14 461 774 459 ?0 454 467 5 468 +0
 0 0 454 22 81 1 464 1116 407 461 0 459 457 0 469 82 1 466 -1316290402 80 1 407
 0 470 8001 0 0 0 0 3 5 0 0 0 FFFFTFTFFFFFFF2 83 255 3 469 .792156862745098 .819
607843137255 .933333333333333 79 255 15 470 SDL/TYSA_COLOUR15 467 776 0 278 461
 0 50 468 896 0 461 290 463 0 +-.01667 .01 0 0 -1 0 0 0 -1 51 290 897 0 287 414
 468 0 +-.01667 .01 .025 0 -1 0 .01 0 0 -1 51 463 894 0 454 468 456 0 +-.01667 .
01 0 0 -1 0 .01 0 0 -1 50 456 893 0 447 463 449 0 +-.01667 .01 -.025 0 -1 0 0 0
 -1 51 449 891 0 440 456 442 0 +-.01667 .01 -.025 0 -1 0 .01 0 0 -1 50 442 890 0
 433 449 435 0 +.01667 .01 -.025 0 -1 0 0 0 -1 51 435 888 0 426 442 428 0 +.0166
7 .01 -.025 0 -1 0 .01 0 0 -1 50 428 887 0 420 435 312 0 +.01667 .01 .025 0 -1 0
 0 0 -1 51 312 885 0 413 428 305 0 +.01667 .01 .025 0 -1 0 .01 0 0 -1 50 414 899
 0 285 0 290 0 +-.01667 .01 .025 0 -1 0 0 0 -1 17 278 0 467 278 278 0 471 252 0
 0 +17 471 0 462 471 471 0 278 252 0 0 -15 462 772 0 471 454 472 15 472 773 0 27
6 454 0 17 276 0 472 276 276 0 473 274 0 0 +17 473 0 172 473 473 0 276 274 0 0 -
15 172 758 0 473 90 474 15 474 752 0 475 90 476 17 475 0 474 475 475 0 270 268 0
 0 -15 476 746 0 477 90 478 17 477 0 476 477 477 0 264 262 0 0 -15 478 740 0 479
 90 292 17 479 0 478 479 479 0 257 255 0 0 -17 257 0 480 257 257 0 479 255 0 0 +
15 480 827 0 257 413 0 17 264 0 481 264 264 0 477 262 0 0 +15 481 809 0 264 426
 0 17 270 0 482 270 270 0 475 268 0 0 +15 482 791 0 270 440 0 83 3 465 .79215686
2745098 .819607843137255 .933333333333333 83 3 458 .792156862745098 .81960784313
7255 .933333333333333 15 455 794 0 273 447 0 17 273 0 455 273 273 0 483 271 0 0
 +17 483 0 448 483 483 0 273 271 0 0 -15 448 790 0 483 440 482 83 3 451 .7921568
62745098 .819607843137255 .933333333333333 83 3 444 .792156862745098 .8196078431
37255 .933333333333333 15 441 812 0 267 433 0 17 267 0 441 267 267 0 484 265 0 0
 +17 484 0 434 484 484 0 267 265 0 0 -15 434 808 0 484 426 481 83 3 437 .7921568
62745098 .819607843137255 .933333333333333 83 3 430 .792156862745098 .8196078431
37255 .933333333333333 15 427 830 0 261 420 0 17 261 0 427 261 261 0 485 258 0 0
 +17 485 0 421 485 485 0 261 258 0 0 -15 421 826 0 485 413 480 83 3 423 .7921568
62745098 .819607843137255 .933333333333333 81 1 415 1107 407 287 0 179 486 410 4
87 83 3 417 .792156862745098 .819607843137255 .933333333333333 81 1 179 1227 94
 287 415 0 176 297 488 81 1 486 1106 407 289 0 302 301 415 489 83 3 487 .7921568
62745098 .819607843137255 .933333333333333 81 1 302 1229 94 289 486 0 297 306 49
0 81 1 301 1105 407 296 0 297 491 486 492 83 3 489 .792156862745098 .81960784313
7255 .933333333333333 81 1 491 1104 407 298 0 306 493 301 494 83 3 492 .79215686
2745098 .819607843137255 .933333333333333 81 1 306 1230 94 298 491 0 302 315 495
 81 1 493 1103 407 307 0 339 496 491 497 83 3 494 .792156862745098 .819607843137
255 .933333333333333 81 1 339 1237 94 307 493 0 335 342 498 81 1 496 1102 407 33
1 0 333 499 493 500 83 3 497 .792156862745098 .819607843137255 .933333333333333
 81 1 333 1235 94 331 496 0 329 335 501 81 1 499 1101 407 326 0 335 502 496 503
 83 3 500 .792156862745098 .819607843137255 .933333333333333 81 1 335 1236 94 32
6 499 0 333 339 504 81 1 502 1100 407 323 0 325 505 499 506 83 3 503 .7921568627
45098 .819607843137255 .933333333333333 81 1 325 1233 94 323 502 0 320 329 507 8
1 1 505 1099 407 316 0 329 508 502 509 83 3 506 .792156862745098 .81960784313725
5 .933333333333333 81 1 329 1234 94 316 505 0 325 333 510 81 1 508 1098 407 313
 0 315 511 505 512 83 3 509 .792156862745098 .819607843137255 .933333333333333 8
1 1 315 1231 94 313 508 0 306 320 513 81 1 511 1097 407 317 0 320 514 508 515 83
 3 512 .792156862745098 .819607843137255 .933333333333333 81 1 320 1232 94 317 5
11 0 315 325 516 81 1 514 1096 407 321 0 342 517 511 518 83 3 515 .7921568627450
98 .819607843137255 .933333333333333 81 1 342 1238 94 321 514 0 339 346 519 81 1
 517 1095 407 343 0 346 520 514 521 83 3 518 .792156862745098 .819607843137255 .
933333333333333 81 1 346 1239 94 343 517 0 342 351 522 81 1 520 1094 407 347 0 3
71 523 517 524 83 3 521 .792156862745098 .819607843137255 .933333333333333 81 1
 371 1245 94 347 520 0 368 374 525 81 1 523 1093 407 365 0 368 526 520 527 83 3
 524 .792156862745098 .819607843137255 .933333333333333 81 1 368 1244 94 365 523
 0 364 371 528 81 1 526 1092 407 361 0 364 529 523 530 83 3 527 .792156862745098
 .819607843137255 .933333333333333 81 1 364 1243 94 361 526 0 360 368 531 81 1 5
29 1091 407 357 0 360 532 526 533 83 3 530 .792156862745098 .819607843137255 .93
3333333333333 81 1 360 1242 94 357 529 0 356 364 534 81 1 532 1090 407 352 0 356
 535 529 536 83 3 533 .792156862745098 .819607843137255 .933333333333333 81 1 35
6 1241 94 352 532 0 351 360 537 81 1 535 1089 407 349 0 351 538 532 539 83 3 536
 .792156862745098 .819607843137255 .933333333333333 81 1 351 1240 94 349 535 0 3
46 356 540 81 1 538 1088 407 353 0 374 541 535 542 83 3 539 .792156862745098 .81
9607843137255 .933333333333333 81 1 374 1246 94 353 538 0 371 378 543 81 1 541 1
087 407 375 0 378 544 538 545 83 3 542 .792156862745098 .819607843137255 .933333
333333333 81 1 378 1247 94 375 541 0 374 382 546 81 1 544 1086 407 379 0 382 547
 541 548 83 3 545 .792156862745098 .819607843137255 .933333333333333 81 1 382 12
48 94 379 544 0 378 386 549 81 1 547 1085 407 383 0 386 550 544 551 83 3 548 .79
2156862745098 .819607843137255 .933333333333333 81 1 386 1249 94 383 547 0 382 3
91 552 81 1 550 1084 407 387 0 394 553 547 554 83 3 551 .792156862745098 .819607
843137255 .933333333333333 81 1 394 1251 94 387 550 0 391 396 555 81 1 553 1083
 407 389 0 391 397 550 556 83 3 554 .792156862745098 .819607843137255 .933333333
333333 81 1 391 1250 94 389 553 0 386 394 557 81 1 397 1082 407 392 0 396 401 55
3 558 83 3 556 .792156862745098 .819607843137255 .933333333333333 83 3 558 .7921
56862745098 .819607843137255 .933333333333333 82 1 557 -1842347890 82 1 555 -184
4313970 82 1 552 -1846345586 82 1 549 -1848311666 82 1 546 -298254184 82 1 543 -
300220264 82 1 540 -294256488 82 1 537 -296222568 82 1 534 -290324328 82 1 531 -
292290408 82 1 528 -286392168 82 1 525 -288358248 82 1 522 1614086299 82 1 519 1
612120219 82 1 516 1618083995 82 1 513 1616117915 82 1 510 1622016155 82 1 507 1
620050075 82 1 504 1625948315 82 1 501 1623982235 82 1 498 1629880475 82 1 495 1
627914395 82 1 490 -1320288098 82 1 488 -1298595682 81 1 408 1080 407 139 0 144
 143 401 559 83 3 409 .792156862745098 .819607843137255 .933333333333333 81 1 14
4 1218 94 139 408 0 138 149 560 81 1 143 1079 407 137 0 138 561 408 562 83 3 559
 .792156862745098 .819607843137255 .933333333333333 81 1 561 1078 407 140 0 149
 563 143 564 83 3 562 .792156862745098 .819607843137255 .933333333333333 81 1 14
9 1219 94 140 561 0 144 157 565 81 1 563 1077 407 150 0 157 566 561 567 83 3 564
 .792156862745098 .819607843137255 .933333333333333 81 1 157 1220 94 150 563 0 1
49 162 568 81 1 566 1076 407 158 0 162 569 563 570 83 3 567 .792156862745098 .81
9607843137255 .933333333333333 81 1 162 1221 94 158 566 0 157 166 571 81 1 569 1
075 407 163 0 166 572 566 573 83 3 570 .792156862745098 .819607843137255 .933333
333333333 81 1 166 1222 94 163 569 0 162 169 574 81 1 572 1074 407 90 0 171 575
 569 576 83 3 573 .792156862745098 .819607843137255 .933333333333333 81 1 171 12
24 94 90 572 0 169 174 577 81 1 575 1073 407 63 0 169 178 572 578 83 3 576 .7921
56862745098 .819607843137255 .933333333333333 81 1 169 1223 94 63 575 0 166 171
 579 81 1 178 1072 407 74 0 176 580 575 581 83 3 578 .792156862745098 .819607843
137255 .933333333333333 81 1 580 1071 407 70 0 174 582 178 583 83 3 581 .7921568
62745098 .819607843137255 .933333333333333 81 1 174 1225 94 70 580 0 171 176 584
 81 1 582 1070 407 92 0 96 95 580 585 83 3 583 .792156862745098 .819607843137255
 .933333333333333 81 1 96 1216 94 92 582 0 91 138 586 81 1 95 1069 407 15 0 91 0
 582 587 83 3 585 .792156862745098 .819607843137255 .933333333333333 83 3 587 .7
92156862745098 .819607843137255 .933333333333333 82 1 586 1989017752 82 1 584 19
89279899 82 1 579 1982464129 82 1 577 1988100254 82 1 574 491323521 82 1 571 489
357441 82 1 568 1924399238 82 1 565 1922433158 82 1 560 1918500998 79 14 406 SWE
ntUnchanged82 1 399 1914503302 15 395 335 0 190 387 0 17 190 0 395 190 190 0 588
 134 0 0 +17 588 0 393 588 588 0 190 134 0 0 -15 393 331 0 588 389 188 15 188 33
2 0 186 389 0 15 388 313 0 589 383 590 17 589 0 388 589 589 0 194 118 0 0 -15 59
0 314 0 183 383 0 17 183 0 590 183 183 0 181 184 0 0 +17 194 0 384 194 194 0 589
 118 0 0 +15 384 317 0 194 379 0 15 380 458 0 591 375 592 17 591 0 380 591 591 0
 200 191 0 0 -15 592 459 0 197 375 0 17 197 0 592 197 197 0 593 195 0 0 +17 593
 0 594 593 593 0 197 195 0 0 -15 594 371 0 593 92 45 15 45 78 0 44 92 0 17 200 0
 376 200 200 0 591 191 0 0 +15 376 462 0 200 353 0 15 372 408 0 203 347 0 17 203
 0 372 203 203 0 595 201 0 0 +17 595 0 369 595 595 0 203 201 0 0 -15 369 404 0 5
95 365 596 15 596 405 0 207 365 0 17 207 0 596 207 207 0 597 204 0 0 +17 597 0 9
8 597 597 0 207 204 0 0 -15 98 389 0 597 92 598 15 598 383 0 599 92 600 17 599 0
 598 599 599 0 213 211 0 0 -15 600 377 0 601 92 594 17 601 0 600 601 601 0 218 1
98 0 0 -17 218 0 602 218 218 0 601 198 0 0 +15 602 441 0 218 349 0 17 213 0 603
 213 213 0 599 211 0 0 +15 603 423 0 213 357 0 15 366 426 0 210 361 0 17 210 0 3
66 210 210 0 604 208 0 0 +17 604 0 362 604 604 0 210 208 0 0 -15 362 422 0 604 3
57 603 15 358 444 0 216 352 0 17 216 0 358 216 216 0 605 214 0 0 +17 605 0 354 6
05 605 0 216 214 0 0 -15 354 440 0 605 349 602 15 348 641 0 606 343 607 17 606 0
 348 606 606 0 224 205 0 0 -15 607 642 0 221 343 0 17 221 0 607 221 221 0 608 21
9 0 0 +17 608 0 609 608 608 0 221 219 0 0 -15 609 530 0 608 70 66 17 224 0 344 2
24 224 0 606 205 0 0 +15 344 645 0 224 321 0 15 340 569 0 610 307 611 17 610 0 3
40 610 610 0 231 228 0 0 -15 611 570 0 227 307 0 17 227 0 611 227 227 0 612 225
 0 0 +17 612 0 175 612 612 0 227 225 0 0 -15 175 554 0 612 70 613 15 613 548 0 6
14 70 615 17 614 0 613 614 614 0 234 232 0 0 -15 615 542 0 616 70 617 17 616 0 6
15 616 616 0 240 238 0 0 -15 617 536 0 618 70 609 17 618 0 617 618 618 0 246 244
 0 0 -17 246 0 619 246 246 0 618 244 0 0 +15 619 624 0 246 317 0 17 240 0 620 24
0 240 0 616 238 0 0 +15 620 606 0 240 316 0 17 234 0 621 234 234 0 614 232 0 0 +
15 621 588 0 234 326 0 17 231 0 308 231 231 0 610 228 0 0 +15 308 573 0 231 298
 0 15 336 587 0 622 326 621 17 622 0 336 622 622 0 237 235 0 0 -17 237 0 334 237
 237 0 622 235 0 0 +15 334 591 0 237 331 0 15 330 605 0 623 316 620 17 623 0 330
 623 623 0 243 241 0 0 -17 243 0 327 243 243 0 623 241 0 0 +15 327 609 0 243 323
 0 15 322 623 0 624 317 619 17 624 0 322 624 624 0 248 222 0 0 -17 248 0 318 248
 248 0 624 222 0 0 +15 318 627 0 248 313 0 17 310 0 299 310 310 0 254 229 0 0 -1
7 254 0 304 254 254 0 310 229 0 0 +15 304 866 0 254 289 0 82 1 303 -1318322018 8
2 1 180 1989542030 15 170 133 0 127 63 58 17 127 0 170 127 127 0 124 123 0 0 -15
 167 148 0 625 163 126 17 625 0 167 625 625 0 122 85 0 0 -15 126 149 0 124 163 0
 17 122 0 164 122 122 0 625 85 0 0 +15 164 152 0 122 158 0 15 159 238 0 626 150
 111 17 626 0 159 626 626 0 117 113 0 0 -15 111 239 0 109 150 0 17 117 0 151 117
 117 0 626 113 0 0 +15 151 242 0 117 140 0 17 153 0 141 153 153 0 115 112 0 0 -1
7 115 0 147 115 115 0 153 112 0 0 +15 147 224 0 115 139 0 82 1 145 1920467078 82
 1 97 1989738630 17 32 0 45 23 46 11 33 65 0 62 -19 16 95 0 1 0 9 5 S0 74 4 CI16
 index_map_offset0 0 1 dCCZ20 14 3 0 0 459 2 464 0 0 0 0 0 0 0 0 0 0 0 0 0 0 0 0
 0 80 2 12 627 628 8004 0 0 0 0 3 5 0 0 0 FFTFFFFFFFFFFF2 3 83 1 13 1e3 79 16 62
8 SDL/TYSA_DENSITY1 0 
