**ABCDEFGHIJKLMNOPQRSTUVWXYZabcdefghijklmnopqrstuvwxyz**************************
**PARASOLID !"#$%&'()*+,-./:;<=>?@[\]^_`{|}~0123456789**************************
**PART1;
MC=AMD64;
MC_MODEL=Intel64 Family 6 Model 55 Stepping 8, GenuineIntel;
MC_ID=unknown;
OS=Windows_NT;
OS_RELEASE=unknown;
FRU=Parasolid Version 29.0, build 195, 12- 2-2016;
APPL=SOLIDWORKS 2017-2017033;
SITE=;
USER=unknown;
FORMAT=text;
GUISE=transmit;
KEY=dice trimmed;
FILE=dice trimmed.x_t;
DATE=Mon Jan 15 16:50:29 2018;
**PART2;
SCH=SCH_2900195_28101;
USFLD_SIZE=0;
**PART3;
**END_OF_HEADER*****************************************************************
T51 : TRANSMIT FILE created by modeller version 290019523 SCH_2900195_28101_1300
6203 0 12 33 CCCCCCI4 mesh1006 0 I8 polyline1008 0 CCCCCCCDI5 owner1040 0 CCCCCC
I13 boundary_mesh1006 0 I17 boundary_polyline1008 0 CCCA16 index_map_offset0 0 1
 dA9 index_map82 0 A17 node_id_index_map82 0 A20 schema_embedding_map82 0 A5 chi
ld12 0 A14 lowest_node_id0 0 1 dZ1 1633 0 2 0 0 0 0 0 0 1e3 1e-8 0 3 0 1 0 1 1 4
 5 6 7 0 0 8 9 10 0 0 0 0 0 0 70 11 CI9 list_type0 0 1 uI10 notransmit0 0 1 lCCC
DCCDI12 finger_index0 0 1 dI12 finger_block1012 0 CZ2 0 4 T1 0 0 2 20 1 11 11 13
 255 4 94 0 1 0 12 0 0 13 0 51 255 5 1219 0 14 15 0 0 +.05 .095 .045 1 0 0 .005
 0 0 -1 31 255 6 1239 0 16 17 0 0 +.045 .095 .045 1 0 0 0 0 -1 .005 29 255 7 107
9 0 10 18 0 -.05 .095 .045 19 8 CCCCCCCA5 owner12 0 Z8 28 0 1 13 0 19 V0 16 255
 9 1081 0 ?20 0 21 22 0 0 1 18 255 10 1077 0 23 0 24 7 ?1 17 255 23 0 25 26 27 1
0 28 21 0 29 -18 24 1073 0 28 10 30 18 ?1 17 28 0 31 32 20 24 23 21 0 27 +18 30
 1069 0 33 24 34 35 ?1 29 18 1075 0 24 35 7 -.05 .095 -.045 29 35 1071 0 30 36 1
8 -.05 .005 .045 29 36 1068 0 34 37 35 -.05 .005 -.045 18 34 1066 0 32 30 38 36
 ?1 29 37 1059 0 38 39 36 .045 .095 .05 18 38 1057 0 40 34 41 37 ?1 29 39 1055 0
 41 42 37 .045 .005 .05 18 41 1053 0 43 38 44 39 ?1 29 42 1051 0 44 45 39 -.045
 .005 .05 18 44 1049 0 46 41 47 42 ?1 29 45 1048 0 47 48 42 -.045 .095 .05 18 47
 1046 0 49 44 50 45 ?1 29 48 1039 0 50 51 45 .045 .1 -.045 18 50 1037 0 52 47 53
 48 ?1 29 51 1035 0 53 54 48 .045 .1 .045 18 53 1033 0 55 50 56 51 ?1 29 54 1031
 0 56 57 51 -.045 .1 .045 18 56 1029 0 58 53 59 54 ?1 29 57 1028 0 59 60 54 -.04
5 .1 -.045 18 59 1026 0 61 56 62 57 ?1 29 60 1019 0 62 63 57 .05 .095 -.045 18 6
2 1017 0 64 59 65 60 ?1 29 63 1015 0 65 66 60 .05 .005 -.045 18 65 1013 0 67 62
 68 63 ?1 29 66 1011 0 68 69 63 .05 .005 .045 18 68 1009 0 70 65 71 66 ?1 29 69
 1008 0 71 72 66 .05 .095 .045 18 71 1006 0 73 68 74 69 ?1 29 72 999 0 74 75 69
 .045 0 -.045 18 74 997 0 76 71 77 72 ?1 29 75 995 0 77 78 72 .045 0 .045 18 77
 993 0 79 74 80 75 ?1 29 78 991 0 80 81 75 -.045 0 -.045 18 80 989 0 82 77 83 78
 ?1 29 81 988 0 83 84 78 -.045 0 .045 18 83 986 0 85 80 86 81 ?1 29 84 979 0 86
 87 81 .045 .005 -.05 18 86 977 0 88 83 89 84 ?1 29 87 975 0 89 90 84 .045 .095
 -.05 18 89 973 0 91 86 92 87 ?1 29 90 971 0 92 93 87 -.045 .095 -.05 18 92 969
 0 94 89 95 90 ?1 29 93 968 0 95 0 90 -.045 .005 -.05 18 95 966 0 96 92 0 93 ?1
 17 96 0 97 98 99 95 100 101 0 102 +15 255 97 1144 0 76 103 0 17 98 0 97 76 96 8
6 104 105 0 0 -17 99 0 97 96 76 80 106 107 0 100 -17 100 0 108 109 102 80 96 101
 0 0 -16 101 1194 0 ?96 110 0 111 0 0 1 17 102 0 108 100 109 95 112 113 0 114 +1
5 108 1142 0 109 115 0 17 109 0 108 102 100 34 116 117 0 0 +17 112 0 118 119 114
 34 102 113 0 109 -16 113 1189 0 ?102 120 117 121 0 0 1 17 114 0 118 112 122 95
 94 123 0 104 -15 118 1136 0 122 124 0 17 122 0 118 114 119 92 125 126 0 0 +17 9
4 0 127 91 104 92 114 123 0 128 +16 123 970 0 ?94 129 130 131 0 0 1 17 104 0 127
 94 88 95 98 105 0 0 +15 127 967 0 88 132 133 17 88 0 127 104 91 86 134 135 0 13
6 +16 105 981 0 ?104 137 135 138 0 0 1 16 137 990 0 ?82 139 105 140 0 0 1 16 135
 978 0 ?88 105 129 141 0 0 1 30 255 138 983 0 105 141 140 0 +-.05 .005 -.05 -1 0
 0 30 141 980 0 135 142 138 0 +.045 .1 -.05 0 -1 0 30 140 992 0 137 138 143 0 +-
.045 0 0 0 0 -1 30 143 996 0 139 140 144 0 +0 0 .045 -1 0 0 16 139 994 0 ?85 145
 137 143 0 0 1 30 144 1000 0 145 143 146 0 -.045 0 .05 0 0 -1 16 145 998 0 ?79 1
07 139 144 0 0 1 30 146 1003 0 107 144 147 0 -.05 0 -.045 -1 0 0 16 107 1001 0 ?
106 148 145 146 0 0 1 30 147 1012 0 148 146 149 0 +.05 0 .045 0 -1 0 16 148 1010
 0 ?70 150 107 147 0 0 1 30 149 1016 0 150 147 151 0 +.05 .005 -.05 0 0 -1 16 15
0 1014 0 ?67 152 148 149 0 0 1 30 151 1020 0 152 149 153 0 -.05 .095 .05 0 0 -1
 16 152 1018 0 ?73 154 150 151 0 0 1 30 153 1023 0 154 151 155 0 -.05 .1 -.045 0
 -1 0 16 154 1021 0 ?156 157 152 153 0 0 1 30 155 1032 0 157 153 158 0 --.045 .1
 .05 0 0 -1 16 157 1030 0 ?58 159 154 155 0 0 1 30 158 1036 0 159 155 160 0 -.05
 .1 .045 -1 0 0 16 159 1034 0 ?55 161 157 158 0 0 1 30 160 1040 0 161 158 162 0
 +0 .1 -.045 -1 0 0 16 161 1038 0 ?61 163 159 160 0 0 1 30 162 1043 0 163 160 16
4 0 +.045 .1 0 0 0 -1 16 163 1041 0 ?165 166 161 162 0 0 1 30 164 1052 0 166 162
 167 0 +-.045 .1 .05 0 -1 0 16 166 1050 0 ?46 168 163 164 0 0 1 30 167 1056 0 16
8 164 169 0 -.05 .005 .05 -1 0 0 16 168 1054 0 ?43 170 166 167 0 0 1 30 169 1060
 0 170 167 171 0 +-.05 .095 .05 -1 0 0 16 170 1058 0 ?49 172 168 169 0 0 1 30 17
1 1063 0 172 169 173 0 -.045 .1 .05 0 -1 0 16 172 1061 0 ?174 175 170 171 0 0 1
 30 173 1072 0 175 171 176 0 --.05 .005 .05 0 0 -1 16 175 1070 0 ?33 177 172 173
 0 0 1 30 176 1076 0 177 173 178 0 +-.05 0 -.045 0 -1 0 16 177 1074 0 ?32 21 175
 176 0 0 1 30 178 1080 0 21 176 22 0 +-.05 .095 -.05 0 0 -1 16 21 1078 0 ?28 9 1
77 178 0 0 1 30 22 1083 0 9 178 111 0 --.05 .1 .045 0 -1 0 31 111 1262 0 101 22
 179 0 --.045 .005 -.045 -1 0 0 0 0 1 .005 31 179 1261 0 110 111 180 0 -.045 .00
5 -.045 1 0 0 0 0 -1 .005 16 110 1192 0 ?76 117 101 179 0 0 1 31 180 1260 0 117
 179 121 0 +-.045 .005 -.045 0 0 -1 -1 0 0 .005 16 117 1190 0 ?109 113 110 180 0
 0 1 31 121 1259 0 113 180 181 0 +-.045 .005 -.045 0 -1 -867361737988404e-30 0 8
67361737988404e-30 -1 .005 31 181 1258 0 120 121 182 0 +.045 .005 -.045 0 -1 0 0
 0 -1 .005 16 120 1188 0 ?183 184 113 181 0 0 1 31 182 1257 0 184 181 185 0 +.04
5 .005 -.045 0 0 -1 -1 0 0 .005 16 184 1187 0 ?186 187 120 182 0 0 1 31 185 1256
 0 187 182 188 0 --.045 .005 .045 0 0 1 1 0 0 .005 16 187 1185 0 ?189 126 184 18
5 0 0 1 31 188 1255 0 126 185 190 0 --.045 .095 -.045 0 1 0 0 0 1 .005 16 126 11
82 0 ?122 191 187 188 0 0 1 31 190 1254 0 191 188 192 0 -.045 .095 -.045 0 1 0 0
 0 1 .005 16 191 1179 0 ?64 193 126 190 0 0 1 31 192 1253 0 193 190 194 0 -.045
 .005 .045 0 0 1 1 0 0 .005 16 193 1176 0 ?195 196 191 192 0 0 1 31 194 1252 0 1
96 192 197 0 +-.045 .005 .045 -1 0 1387778780781446e-30 1387778780781446e-30 0 1
 .005 16 196 1174 0 ?198 199 193 194 0 0 1 31 197 1251 0 199 194 200 0 +-.045 .0
05 .045 0 -1 0 0 0 -1 .005 16 199 1173 0 ?201 202 196 197 0 0 1 31 200 1250 0 20
2 197 203 0 +-.045 .095 -.045 0 0 -1 -1 0 0 .005 16 202 1172 0 ?204 205 199 200
 0 0 1 31 203 1249 0 205 200 206 0 +-.045 .095 -.045 -1 0 0 0 0 1 .005 16 205 11
71 0 ?207 208 202 203 0 0 1 31 206 1248 0 208 203 209 0 +.045 .095 -.045 1 0 0 0
 0 -1 .005 16 208 1170 0 ?52 210 205 206 0 0 1 31 209 1247 0 210 206 211 0 +.045
 .095 -.045 0 0 -1 -1 0 0 .005 16 210 1169 0 ?212 213 208 209 0 0 1 31 211 1246
 0 213 209 214 0 +.045 .005 .045 0 -1 -867361737988404e-30 0 867361737988404e-30
 -1 .005 16 213 1168 0 ?215 216 210 211 0 0 1 31 214 1245 0 216 211 217 0 +.045
 .005 .045 1 0 0 0 0 -1 .005 16 216 1167 0 ?218 219 213 214 0 0 1 31 217 1244 0
 219 214 220 0 --.045 .095 .045 0 1 0 0 0 1 .005 16 219 1163 0 ?221 222 216 217
 0 0 1 31 220 1243 0 222 217 223 0 --.045 .095 .045 0 0 1 1 0 0 .005 16 222 1160
 0 ?26 224 219 220 0 0 1 31 223 1242 0 224 220 225 0 -.045 .095 .045 0 0 1 1 0 0
 .005 16 224 1155 0 ?226 227 222 223 0 0 1 31 225 1241 0 227 223 17 0 -.045 .095
 .045 0 1 0 0 0 1 .005 16 227 1152 0 ?40 228 224 225 0 0 1 31 17 1240 0 228 225
 6 0 +-.045 .095 .045 -1 -1387778780781444e-30 0 1387778780781444e-30 -1 0 .005
 16 228 1150 0 ?229 16 227 17 0 0 1 17 229 0 230 29 231 56 232 228 0 26 +16 16 1
149 0 ?233 234 228 6 0 0 1 17 233 0 235 236 237 38 238 16 0 239 +16 234 834 0 ?2
40 241 16 242 0 0 1 17 240 0 243 240 240 0 244 234 0 0 +16 241 831 0 ?245 246 23
4 247 0 0 1 31 242 906 0 234 247 248 0 +-.01667 0 .025 0 -1 0 0 0 -1 .01 31 247
 907 0 241 0 242 0 +-.01667 .01 .025 0 -1 0 0 0 -1 .01 31 248 905 0 249 242 250
 0 +-.01667 .01 0 0 -1 0 0 0 -1 .01 16 249 759 0 ?251 252 253 248 0 0 1 31 250 9
04 0 253 248 254 0 +-.01667 0 0 0 -1 0 0 0 -1 .01 16 253 762 0 ?255 249 256 250
 0 0 1 31 254 903 0 256 250 257 0 +-.01667 .01 -.025 0 -1 0 0 0 -1 .01 16 256 77
7 0 ?258 253 259 254 0 0 1 31 257 902 0 259 254 260 0 +-.01667 0 -.025 0 -1 0 0
 0 -1 .01 16 259 780 0 ?261 256 262 257 0 0 1 31 260 901 0 262 257 263 0 +.01667
 .01 -.025 0 -1 0 0 0 -1 .01 16 262 795 0 ?264 259 265 260 0 0 1 31 263 900 0 26
5 260 266 0 +.01667 0 -.025 0 -1 0 0 0 -1 .01 16 265 798 0 ?267 262 268 263 0 0
 1 31 266 899 0 268 263 269 0 +.01667 .01 .025 0 -1 0 0 0 -1 .01 16 268 813 0 ?2
70 265 246 266 0 0 1 31 269 898 0 246 266 271 0 +.01667 0 .025 0 -1 0 0 0 -1 .01
 16 246 816 0 ?272 268 241 269 0 0 1 31 271 897 0 273 269 274 0 +.01667 .01 0 0
 -1 0 0 0 -1 .01 16 273 849 0 ?275 276 252 271 0 0 1 31 274 896 0 252 271 277 0
 +.01667 0 0 0 -1 0 0 0 -1 .01 16 252 852 0 ?278 273 249 274 0 0 1 31 277 683 0
 279 274 280 0 +.0275 .0775 -.04 0 0 -1 -1 0 0 .01 16 279 614 0 ?281 282 283 277
 0 0 1 31 280 682 0 283 277 284 0 +.0275 .0775 -.05 0 0 -1 -1 0 0 .01 16 283 617
 0 ?285 279 286 280 0 0 1 31 284 681 0 286 280 287 0 +-.0275 .0775 -.04 0 0 -1 -
1 0 0 .01 16 286 596 0 ?288 283 289 284 0 0 1 31 287 680 0 289 284 290 0 +-.0275
 .0775 -.05 0 0 -1 -1 0 0 .01 16 289 599 0 ?291 286 292 287 0 0 1 31 290 679 0 2
92 287 293 0 +-.0275 .0225 -.04 0 0 -1 -1 0 0 .01 16 292 578 0 ?294 289 295 290
 0 0 1 31 293 678 0 295 290 296 0 +-.0275 .0225 -.05 0 0 -1 -1 0 0 .01 16 295 58
1 0 ?297 292 298 293 0 0 1 31 296 677 0 298 293 299 0 +.0275 .0225 -.04 0 0 -1 -
1 0 0 .01 16 298 560 0 ?300 295 276 296 0 0 1 31 299 676 0 276 296 301 0 +.0275
 .0225 -.05 0 0 -1 -1 0 0 .01 16 276 563 0 ?302 298 273 299 0 0 1 31 301 675 0 3
03 299 304 0 +0 .05 -.04 0 0 -1 -1 0 0 .01 16 303 632 0 ?305 306 282 301 0 0 1 3
1 304 674 0 282 301 307 0 +0 .05 -.05 0 0 -1 -1 0 0 .01 16 282 635 0 ?308 303 27
9 304 0 0 1 31 307 493 0 309 304 310 0 +.05 .075 -.025 1 0 0 0 0 -1 .0125 16 309
 434 0 ?311 312 313 307 0 0 1 31 310 492 0 313 307 314 0 +.04 .075 -.025 1 0 0 0
 0 -1 .0125 16 313 431 0 ?315 309 316 310 0 0 1 31 314 491 0 316 310 317 0 +.05
 .075 .025 1 0 0 0 0 -1 .0125 16 316 416 0 ?318 313 319 314 0 0 1 31 317 490 0 3
19 314 320 0 +.04 .075 .025 1 0 0 0 0 -1 .0125 16 319 413 0 ?321 316 322 317 0 0
 1 31 320 489 0 322 317 323 0 +.05 .025 .025 1 0 0 0 0 -1 .0125 16 322 398 0 ?32
4 319 306 320 0 0 1 31 323 488 0 306 320 325 0 +.04 .025 .025 1 0 0 0 0 -1 .0125
 16 306 395 0 ?326 322 303 323 0 0 1 31 325 487 0 327 323 328 0 +.04 .025 -.025
 1 0 0 0 0 -1 .0125 16 327 449 0 ?329 330 312 325 0 0 1 31 328 486 0 312 325 331
 0 +.05 .025 -.025 1 0 0 0 0 -1 .0125 16 312 452 0 ?332 327 309 328 0 0 1 31 331
 352 0 333 328 334 0 +-.04 .03302943725152285 .01697056274847715 -1 0 0 0 0 1 .0
13 16 333 304 0 ?335 336 337 331 0 0 1 31 334 351 0 337 331 338 0 +-.05 .0330294
3725152285 .01697056274847715 -1 0 0 0 0 1 .013 16 337 307 0 ?339 333 340 334 0
 0 1 31 338 350 0 340 334 341 0 +-.05 .0669705627484772 -.01697056274847715 -1 0
 0 0 0 1 .013 16 340 325 0 ?342 337 330 338 0 0 1 31 341 349 0 330 338 343 0 +-.
04 .0669705627484772 -.01697056274847715 -1 0 0 0 0 1 .013 16 330 322 0 ?344 340
 327 341 0 0 1 31 343 266 0 345 341 346 0 +.02474873734152915 .0747487373415292
 .04 0 0 1 1 0 0 .01 16 345 193 0 ?347 348 349 343 0 0 1 31 346 265 0 349 343 35
0 0 +.02474873734152915 .0747487373415292 .05 0 0 1 1 0 0 .01 16 349 196 0 ?351
 345 352 346 0 0 1 31 350 264 0 352 346 353 0 +0 .05 .05 0 0 1 1 0 0 .01 16 352
 214 0 ?354 349 355 350 0 0 1 31 353 263 0 355 350 356 0 +0 .05 .04 0 0 1 1 0 0
 .01 16 355 211 0 ?357 352 358 353 0 0 1 31 356 262 0 358 353 359 0 +-.024748737
34152915 .02525126265847085 .05 0 0 1 1 0 0 .01 16 358 232 0 ?360 355 336 356 0
 0 1 31 359 261 0 336 356 361 0 +-.02474873734152915 .02525126265847085 .04 0 0
 1 1 0 0 .01 16 336 229 0 ?362 358 333 359 0 0 1 31 361 162 0 130 359 363 0 +0 .
09 0 0 1 0 0 0 1 .015 16 130 139 0 ?364 123 348 361 0 0 1 31 363 161 0 348 361 1
31 0 +0 .1 0 0 1 0 0 0 1 .015 16 348 142 0 ?365 130 345 363 0 0 1 30 131 972 0 1
23 363 142 0 --.045 .1 -.05 0 -1 0 30 142 976 0 129 131 141 0 -.05 .095 -.05 -1
 0 0 16 129 974 0 ?91 135 123 142 0 0 1 17 91 0 127 88 94 89 128 129 0 366 +17 1
28 0 367 368 366 92 91 129 0 207 -17 366 0 367 128 369 89 52 208 0 370 -15 367 1
114 0 368 371 0 17 369 0 367 366 368 50 61 161 0 165 -17 52 0 372 212 370 50 366
 208 0 373 +17 370 0 372 52 212 89 64 191 0 134 -15 372 1126 0 52 374 0 17 212 0
 372 370 52 62 373 210 0 375 +17 64 0 376 377 134 62 370 191 0 212 +17 134 0 376
 64 136 89 88 135 0 0 -15 376 1134 0 64 378 0 17 136 0 376 134 377 86 183 120 0
 379 -17 377 0 376 136 64 65 156 154 0 380 -17 183 0 381 186 379 65 136 120 0 0
 +17 379 0 381 183 186 86 76 110 0 98 -15 381 1140 0 183 382 0 17 186 0 381 379
 183 74 380 184 0 383 +17 76 0 97 99 98 74 379 110 0 186 +17 380 0 384 385 383 6
5 186 184 0 183 -17 383 0 384 380 195 74 79 145 0 106 -15 384 1132 0 195 386 0 1
7 195 0 384 383 385 77 387 193 0 0 +17 79 0 388 85 106 77 383 145 0 389 +17 106
 0 388 79 82 74 99 107 0 0 +15 388 987 0 82 390 391 17 82 0 388 106 85 80 392 13
7 0 116 +17 85 0 388 82 79 83 389 139 0 393 +17 392 0 394 189 116 83 82 137 0 0
 -17 116 0 394 392 395 80 109 117 0 99 -15 394 1138 0 189 396 0 17 395 0 394 116
 189 34 33 175 0 112 -17 189 0 394 395 392 30 397 187 0 0 +17 33 0 31 20 32 30 3
95 175 0 398 +15 31 1067 0 33 399 400 17 20 0 31 28 33 10 398 9 0 0 +17 32 0 31
 33 28 34 119 177 0 395 +17 398 0 401 402 221 30 20 9 0 201 -15 401 1118 0 221 4
03 0 17 402 0 401 404 398 44 201 199 0 198 -17 221 0 401 398 404 10 231 219 0 20
 +17 201 0 405 397 198 30 402 199 0 189 +15 405 1130 0 198 406 0 17 397 0 405 19
8 201 83 189 187 0 392 -17 198 0 405 201 397 44 393 196 0 0 +17 393 0 407 389 40
8 83 198 196 0 397 -15 407 1122 0 409 410 0 17 389 0 407 409 393 77 85 139 0 218
 -17 408 0 407 393 409 44 43 168 0 402 -17 409 0 407 408 389 41 218 216 0 215 -1
7 43 0 411 174 46 41 408 168 0 412 +15 411 1047 0 43 12 413 17 174 0 411 49 43 3
8 412 172 0 0 +17 46 0 411 43 49 44 404 166 0 408 +17 412 0 414 415 40 41 174 17
2 0 409 -15 414 1108 0 40 416 0 17 415 0 414 417 412 68 215 213 0 387 -17 40 0 4
14 412 417 38 236 227 0 233 +17 417 0 414 40 415 71 70 148 0 0 -17 236 0 235 237
 233 71 40 227 0 417 -15 235 1104 0 237 418 0 17 237 0 235 233 236 53 226 224 0
 419 -17 226 0 420 375 419 71 237 224 0 236 +17 419 0 420 226 373 53 165 163 0 0
 -15 420 1112 0 226 421 0 17 373 0 420 419 375 50 212 210 0 369 -17 165 0 422 61
 55 50 419 163 0 0 +15 422 1027 0 55 423 424 17 61 0 422 58 165 59 369 161 0 425
 +17 55 0 422 165 58 53 426 159 0 238 +17 58 0 422 55 61 56 425 157 0 426 +17 42
6 0 427 232 238 56 55 159 0 229 -17 238 0 427 426 239 53 233 16 0 237 -15 427 11
00 0 238 14 0 17 239 0 427 238 232 38 49 170 0 174 -17 232 0 427 239 426 47 229
 228 0 231 -17 49 0 411 46 174 47 239 170 0 232 +17 231 0 230 229 29 47 221 219
 0 404 -15 230 1106 0 231 428 0 17 29 0 230 231 229 10 26 222 0 221 -17 404 0 40
1 221 402 47 46 166 0 0 -17 26 0 25 425 23 56 29 222 0 0 +15 25 1116 0 26 429 0
 17 425 0 25 27 26 59 58 157 0 368 -17 27 0 25 23 425 24 204 202 0 125 -17 368 0
 367 369 128 59 207 205 0 204 -17 207 0 430 125 204 92 368 205 0 122 +17 204 0 4
30 207 125 59 27 202 0 0 +15 430 1128 0 204 431 0 17 125 0 430 204 207 24 122 12
6 0 119 -17 119 0 118 122 112 24 32 177 0 0 -14 255 431 1127 432 ?406 374 430 4
 433 +0 0 406 374 19 81 255 1 432 1566 434 431 435 0 0 436 437 14 406 1129 436 ?
386 431 405 4 438 +0 0 386 431 19 14 374 1125 439 ?431 440 372 4 441 +0 0 431 44
0 19 53 255 433 1230 0 431 438 441 0 +-.045 .095 -.045 .005 0 0 1 1 0 0 13 19 29
 0 0 0 0 0 0 8 12 14 12 85 442 ?443 0 411 4 444 +0 0 443 0 19 81 1 442 1569 434
 12 445 0 439 446 447 14 443 79 446 ?132 12 448 4 449 -0 0 132 12 19 50 255 444
 89 0 12 450 451 0 +.05 .1 .05 0 0 1 1 0 0 50 450 88 0 399 452 444 0 +-.05 .1 .0
5 -1 0 0 0 0 1 51 451 1238 0 103 444 453 0 +.05 .005 -.045 1 0 0 .005 0 0 -1 14
 103 1143 454 ?0 115 97 4 451 +0 0 0 115 19 53 453 1237 0 115 451 455 0 +-.045 .
005 -.045 .005 0 0 1 1 0 0 14 115 1141 456 ?103 382 108 4 453 +0 0 103 382 19 53
 455 1236 0 382 453 457 0 +.045 .005 -.045 .005 0 0 1 1 0 0 14 382 1139 458 ?115
 396 381 4 455 +0 0 115 396 19 51 457 1235 0 396 455 459 0 +-.045 .005 0 0 0 -1
 .005 -1 0 0 14 396 1137 460 ?382 124 394 4 457 +0 0 382 124 19 51 459 1234 0 12
4 457 461 0 +-.045 .1 -.045 0 1 0 .005 0 0 1 14 124 1135 462 ?396 378 118 4 459
 +0 0 396 378 19 51 461 1233 0 378 459 463 0 +.045 .1 -.045 0 -1 0 .005 0 0 -1 1
4 378 1133 464 ?124 386 376 4 461 +0 0 124 386 19 51 463 1232 0 386 461 438 0 +.
045 .005 .05 0 0 1 .005 1 0 0 14 386 1131 465 ?378 406 384 4 463 +0 0 378 406 19
 53 438 1231 0 406 463 433 0 +-.045 .005 .045 .005 0 0 1 1 0 0 81 1 465 1577 434
 386 466 0 464 467 468 80 255 1 434 469 470 9000 1 1 1 1 1 1 1 1 0 FFFFTFTFFFFFF
F1 81 1 466 1421 471 386 0 465 472 473 474 81 1 464 1576 434 378 473 0 462 465 4
75 81 1 467 1578 434 440 476 0 465 477 478 82 255 1 468 -1410400061 14 440 1123
 467 ?374 410 479 4 480 +0 0 374 410 19 81 1 476 1417 471 440 0 467 481 482 483
 81 1 477 1579 434 410 481 0 467 484 485 82 1 478 -1406795581 14 410 1121 477 ?4
40 403 407 4 486 +0 0 440 403 19 81 1 481 1416 471 410 0 477 487 476 488 81 1 48
4 1580 434 403 487 0 477 489 490 82 1 485 -1405943613 14 403 1117 484 ?410 429 4
01 4 491 +0 0 410 429 19 81 1 487 1415 471 403 0 484 492 481 493 81 1 489 1581 4
34 429 492 0 484 494 495 82 1 490 -1405157181 14 429 1115 489 ?403 371 25 4 496
 +0 0 403 371 19 81 1 492 1414 471 429 0 489 497 487 498 81 1 494 1582 434 371 4
97 0 489 499 500 82 1 495 -1404043069 14 371 1113 494 ?429 421 367 4 501 +0 0 42
9 421 19 81 1 497 1413 471 371 0 494 502 492 503 81 1 499 1583 434 421 502 0 494
 504 505 82 1 500 -1402928957 14 421 1111 499 ?371 416 420 4 506 +0 0 371 416 19
 81 1 502 1412 471 421 0 499 507 497 508 81 1 504 1584 434 416 507 0 499 509 510
 82 1 505 -1402535741 14 416 1107 504 ?421 428 414 4 511 +0 0 421 428 19 81 1 50
7 1411 471 416 0 504 512 502 513 81 1 509 1585 434 428 512 0 504 514 515 82 1 51
0 -1401093949 14 428 1105 509 ?416 418 230 4 516 +0 0 416 418 19 81 1 512 1410 4
71 428 0 509 517 507 518 81 1 514 1586 434 418 517 0 509 519 520 82 1 515 -13999
79837 14 418 1103 514 ?428 14 235 4 15 +0 0 428 14 19 81 1 517 1409 471 418 0 51
4 521 512 522 81 1 519 1587 434 14 521 0 514 523 524 82 1 520 -1399586621 14 14
 1099 519 ?418 525 427 4 5 +0 0 418 525 19 81 1 521 1408 471 14 0 519 526 517 52
7 81 1 523 1588 434 525 526 0 519 528 529 82 1 524 -1398800189 14 525 770 523 ?1
4 530 531 4 532 +0 0 14 530 19 81 1 526 1407 471 525 0 523 533 521 534 81 1 528
 1589 434 530 533 0 523 535 536 82 1 529 451477692 14 530 765 528 ?525 537 538 4
 539 -0 0 525 537 19 81 1 533 1406 471 530 0 528 540 526 541 81 1 535 1590 434 5
37 540 0 528 542 543 82 1 536 453443772 14 537 788 535 ?530 544 545 4 546 +0 0 5
30 544 19 81 1 540 1405 471 537 0 535 547 533 548 81 1 542 1591 434 544 547 0 53
5 549 550 82 1 543 455409852 14 544 783 542 ?537 551 552 4 553 -0 0 537 551 19 8
1 1 547 1404 471 544 0 542 554 540 555 81 1 549 1592 434 551 554 0 542 556 557 8
2 1 550 457375932 14 551 806 549 ?544 558 559 4 560 +0 0 544 558 19 81 1 554 140
3 471 551 0 549 561 547 562 81 1 556 1593 434 558 561 0 549 563 564 82 1 557 459
342012 14 558 801 556 ?551 565 566 4 567 -0 0 551 565 19 81 1 561 1402 471 558 0
 556 568 554 569 81 1 563 1594 434 565 568 0 556 570 571 82 1 564 461308092 14 5
65 824 563 ?558 572 573 4 574 +0 0 558 572 19 81 1 568 1401 471 565 0 563 575 56
1 576 81 1 570 1595 434 572 575 0 563 577 578 82 1 571 463274172 14 572 819 570
 ?565 579 580 4 581 -0 0 565 579 19 81 1 575 1400 471 572 0 570 582 568 583 81 1
 577 1596 434 579 582 0 570 584 585 82 1 578 465240252 14 579 842 577 ?572 586 5
87 4 588 +0 0 572 586 19 81 1 582 1399 471 579 0 577 589 575 590 81 1 584 1597 4
34 586 589 0 577 591 592 82 1 585 467206332 14 586 837 584 ?579 593 594 4 595 -0
 0 579 593 19 81 1 589 1398 471 586 0 584 596 582 597 81 1 591 1598 434 593 596
 0 584 598 599 82 1 592 469172412 14 593 860 591 ?586 600 601 4 602 +0 0 586 600
 19 81 1 596 1397 471 593 0 591 603 589 604 81 1 598 1599 434 600 603 0 591 605
 606 82 1 599 447479996 14 600 855 598 ?593 607 608 4 609 -0 0 593 607 19 81 1 6
03 1396 471 600 0 598 610 596 611 81 1 605 1600 434 607 610 0 598 612 613 82 1 6
06 449446076 14 607 571 605 ?600 614 615 4 616 +0 0 600 614 19 81 1 610 1395 471
 607 0 605 617 603 618 81 1 612 1601 434 614 617 0 605 619 620 82 1 613 16279143
95 14 614 566 612 ?607 621 622 4 623 -0 0 607 621 19 81 1 617 1394 471 614 0 612
 624 610 625 81 1 619 1602 434 621 624 0 612 626 627 82 1 620 1629880475 14 621
 589 619 ?614 628 629 4 630 +0 0 614 628 19 81 1 624 1393 471 621 0 619 631 617
 632 81 1 626 1603 434 628 631 0 619 633 634 82 1 627 1623982235 14 628 584 626
 ?621 635 636 4 637 -0 0 621 635 19 81 1 631 1392 471 628 0 626 638 624 639 81 1
 633 1604 434 635 638 0 626 640 641 82 1 634 1625948315 14 635 607 633 ?628 642
 643 4 644 +0 0 628 642 19 81 1 638 1391 471 635 0 633 645 631 646 81 1 640 1605
 434 642 645 0 633 647 648 82 1 641 1620050075 14 642 602 640 ?635 649 650 4 651
 -0 0 635 649 19 81 1 645 1390 471 642 0 640 652 638 653 81 1 647 1606 434 649 6
52 0 640 654 655 82 1 648 1622016155 14 649 625 647 ?642 656 657 4 658 +0 0 642
 656 19 81 1 652 1389 471 649 0 647 659 645 660 81 1 654 1607 434 656 659 0 647
 661 662 82 1 655 1616117915 14 656 620 654 ?649 663 664 4 665 -0 0 649 663 19 8
1 1 659 1388 471 656 0 654 666 652 667 81 1 661 1608 434 663 666 0 654 668 669 8
2 1 662 1618083995 14 663 643 661 ?656 670 671 4 672 +0 0 656 670 19 81 1 666 13
87 471 663 0 661 673 659 674 81 1 668 1609 434 670 673 0 661 675 676 82 1 669 16
12120219 14 670 638 668 ?663 677 678 4 679 -0 0 663 677 19 81 1 673 1386 471 670
 0 668 680 666 681 81 1 675 1610 434 677 680 0 668 682 683 82 1 676 1614086299 1
4 677 406 675 ?670 684 685 4 686 +0 0 670 684 19 81 1 680 1385 471 677 0 675 687
 673 688 81 1 682 1611 434 684 687 0 675 689 690 82 1 683 -288358248 14 684 401
 682 ?677 691 692 4 693 -0 0 677 691 19 81 1 687 1384 471 684 0 682 694 680 695
 81 1 689 1612 434 691 694 0 682 696 697 82 1 690 -286392168 14 691 424 689 ?684
 698 699 4 700 +0 0 684 698 19 81 1 694 1383 471 691 0 689 701 687 702 81 1 696
 1613 434 698 701 0 689 703 704 82 1 697 -292290408 14 698 419 696 ?691 705 706
 4 707 -0 0 691 705 19 81 1 701 1382 471 698 0 696 708 694 709 81 1 703 1614 434
 705 708 0 696 710 711 82 1 704 -290324328 14 705 442 703 ?698 712 713 4 714 +0
 0 698 712 19 81 1 708 1381 471 705 0 703 715 701 716 81 1 710 1615 434 712 715
 0 703 717 718 82 1 711 -296222568 14 712 437 710 ?705 719 720 4 721 -0 0 705 71
9 19 81 1 715 1380 471 712 0 710 722 708 723 81 1 717 1616 434 719 722 0 710 724
 725 82 1 718 -294256488 14 719 460 717 ?712 726 727 4 728 +0 0 712 726 19 81 1
 722 1379 471 719 0 717 729 715 730 81 1 724 1617 434 726 729 0 717 731 732 82 1
 725 -300220264 14 726 455 724 ?719 733 734 4 735 -0 0 719 733 19 81 1 729 1378
 471 726 0 724 736 722 737 81 1 731 1618 434 733 736 0 724 738 739 82 1 732 -298
254184 14 733 315 731 ?726 740 741 4 742 +0 0 726 740 19 81 1 736 1377 471 733 0
 731 743 729 744 81 1 738 1619 434 740 743 0 731 745 746 82 1 739 -1848311666 14
 740 310 738 ?733 747 748 4 749 -0 0 733 747 19 81 1 743 1376 471 740 0 738 750
 736 751 81 1 745 1620 434 747 750 0 738 752 753 82 1 746 -1846345586 14 747 333
 745 ?740 754 755 4 756 +0 0 740 754 19 81 1 750 1375 471 747 0 745 757 743 758
 81 1 752 1621 434 754 757 0 745 759 760 82 1 753 -1844313970 14 754 328 752 ?74
7 761 762 4 763 -0 0 747 761 19 81 1 757 1374 471 754 0 752 764 750 765 81 1 759
 1622 434 761 764 0 752 766 767 82 1 760 -1842347890 14 761 204 759 ?754 768 769
 4 770 +0 0 754 768 19 81 1 764 1373 471 761 0 759 771 757 772 81 1 766 1623 434
 768 771 0 759 773 774 82 1 767 1914503302 14 768 199 766 ?761 775 776 4 777 -0
 0 761 775 19 81 1 771 1372 471 768 0 766 778 764 779 81 1 773 1624 434 775 778
 0 766 780 781 82 1 774 1916469382 14 775 222 773 ?768 782 783 4 784 +0 0 768 78
2 19 81 1 778 1371 471 775 0 773 785 771 786 81 1 780 1625 434 782 785 0 773 787
 788 82 1 781 1918500998 14 782 217 780 ?775 789 790 4 791 -0 0 775 789 19 81 1
 785 1370 471 782 0 780 792 778 793 81 1 787 1626 434 789 792 0 780 794 795 82 1
 788 1920467078 14 789 240 787 ?782 796 797 4 798 +0 0 782 796 19 81 1 792 1369
 471 789 0 787 799 785 800 81 1 794 1627 434 796 799 0 787 801 802 82 1 795 1922
433158 14 796 235 794 ?789 803 804 4 805 -0 0 789 803 19 81 1 799 1368 471 796 0
 794 806 792 807 81 1 801 1628 434 803 806 0 794 808 809 82 1 802 1924399238 14
 803 150 801 ?796 810 811 4 812 +0 0 796 810 19 81 1 806 1367 471 803 0 801 813
 799 814 81 1 808 1629 434 810 813 0 801 815 816 82 1 809 489357441 14 810 145 8
08 ?803 390 817 4 818 -0 0 803 390 19 81 1 813 1366 471 810 0 808 819 806 820 81
 1 815 1630 434 390 819 0 808 821 822 82 1 816 491323521 14 390 43 815 ?810 423
 388 4 823 +0 0 810 423 19 81 1 819 1365 471 390 0 815 824 813 825 81 1 821 1631
 434 423 824 0 815 826 827 82 1 822 40829123 14 423 1 821 ?390 399 422 4 828 -0
 0 390 399 19 81 1 824 1364 471 423 0 821 829 819 830 81 1 826 1632 434 399 829
 0 821 831 832 82 1 827 40698051 14 399 83 826 ?423 132 31 4 450 +0 0 423 132 19
 81 1 829 1363 471 399 0 826 833 824 834 81 1 831 1633 434 132 833 0 826 0 835 8
2 1 832 41156803 14 132 81 831 ?399 443 127 4 452 -0 0 399 443 19 81 1 833 1362
 471 132 0 831 836 829 837 82 1 835 41025731 80 1 471 0 838 8001 0 0 0 0 3 5 0 0
 0 FFFFTFTFFFFFFF2 81 1 836 1361 471 443 0 446 445 833 839 83 255 3 837 .7921568
62745098 .819607843137255 .933333333333333 81 1 446 1570 434 443 836 0 442 454 8
40 81 1 445 1360 471 12 0 442 0 836 841 83 3 839 .792156862745098 .8196078431372
55 .933333333333333 83 3 841 .792156862745098 .819607843137255 .933333333333333
 81 1 454 1571 434 103 842 0 446 456 843 82 1 840 37683395 81 1 842 1427 471 103
 0 454 844 0 845 81 1 456 1572 434 115 844 0 454 458 846 82 1 843 -1417084733 81
 1 844 1426 471 115 0 456 847 842 848 81 1 458 1573 434 382 847 0 456 460 849 82
 1 846 -1415511869 81 1 847 1425 471 382 0 458 850 844 851 81 1 460 1574 434 396
 850 0 458 462 852 82 1 849 -1414659901 81 1 850 1424 471 396 0 460 853 847 854
 81 1 462 1575 434 124 853 0 460 464 855 82 1 852 -1413807933 81 1 853 1423 471
 124 0 462 473 850 856 82 1 855 -1412628285 81 1 473 1422 471 378 0 464 466 853
 857 83 3 856 .792156862745098 .819607843137255 .933333333333333 83 3 857 .79215
6862745098 .819607843137255 .933333333333333 83 3 854 .792156862745098 .81960784
3137255 .933333333333333 83 3 851 .792156862745098 .819607843137255 .93333333333
3333 83 3 848 .792156862745098 .819607843137255 .933333333333333 83 3 845 .79215
6862745098 .819607843137255 .933333333333333 79 255 15 838 SDL/TYSA_COLOUR50 452
 87 0 132 449 450 0 +.05 .1 -.05 0 0 1 1 0 0 50 449 86 0 443 823 452 0 +.05 .1 .
05 -1 0 0 0 0 1 50 823 65 0 390 828 449 0 +0 0 0 0 -1 0 0 0 -1 50 828 2 0 423 81
8 823 0 +0 .1 0 0 -1 0 0 0 -1 51 818 158 0 810 812 828 0 +0 .09 0 0 1 0 .015 0 0
 1 50 812 160 0 803 798 818 0 +0 .09 0 0 1 0 0 0 1 50 798 252 0 789 805 812 0 +-
.02474873734152915 .02525126265847085 .04 0 0 1 1 0 0 51 805 254 0 796 784 798 0
 +-.02474873734152915 .02525126265847085 .04 0 0 1 .01 1 0 0 50 784 255 0 775 79
1 805 0 +0 .05 .04 0 0 1 1 0 0 51 791 257 0 782 777 784 0 +0 .05 .04 0 0 1 .01 1
 0 0 51 777 258 0 768 770 791 0 +.02474873734152915 .0747487373415292 .04 0 0 1
 .01 1 0 0 50 770 260 0 761 756 777 0 +.02474873734152915 .0747487373415292 .04
 0 0 1 1 0 0 50 756 343 0 747 763 770 0 +-.04 .0669705627484772 -.01697056274847
715 -1 0 0 0 0 1 51 763 345 0 754 749 756 0 +-.04 .0669705627484772 -.0169705627
4847715 -1 0 0 .013 0 0 1 51 749 346 0 740 742 763 0 +-.04 .03302943725152285 .0
1697056274847715 -1 0 0 .013 0 0 1 50 742 348 0 733 735 749 0 +-.04 .03302943725
152285 .01697056274847715 -1 0 0 0 0 1 51 735 474 0 726 728 742 0 +.04 .025 -.02
5 1 0 0 .0125 0 0 -1 50 728 476 0 719 686 735 0 +.04 .025 -.025 1 0 0 0 0 -1 50
 686 477 0 677 693 728 0 +.04 .025 .025 1 0 0 0 0 -1 51 693 479 0 684 700 686 0
 +.04 .025 .025 1 0 0 .0125 0 0 -1 50 700 480 0 691 707 693 0 +.04 .075 .025 1 0
 0 0 0 -1 51 707 482 0 698 714 700 0 +.04 .075 .025 1 0 0 .0125 0 0 -1 50 714 48
3 0 705 721 707 0 +.04 .075 -.025 1 0 0 0 0 -1 51 721 485 0 712 679 714 0 +.04 .
075 -.025 1 0 0 .0125 0 0 -1 51 679 659 0 670 672 721 0 +0 .05 -.04 0 0 -1 .01 -
1 0 0 50 672 661 0 663 623 679 0 +0 .05 -.04 0 0 -1 -1 0 0 51 623 662 0 614 616
 672 0 +.0275 .0225 -.04 0 0 -1 .01 -1 0 0 50 616 664 0 607 637 623 0 +.0275 .02
25 -.04 0 0 -1 -1 0 0 51 637 665 0 628 630 616 0 +-.0275 .0225 -.04 0 0 -1 .01 -
1 0 0 50 630 667 0 621 651 637 0 +-.0275 .0225 -.04 0 0 -1 -1 0 0 51 651 668 0 6
42 644 630 0 +-.0275 .0775 -.04 0 0 -1 .01 -1 0 0 50 644 670 0 635 665 651 0 +-.
0275 .0775 -.04 0 0 -1 -1 0 0 51 665 671 0 656 658 644 0 +.0275 .0775 -.04 0 0 -
1 .01 -1 0 0 50 658 673 0 649 609 665 0 +.0275 .0775 -.04 0 0 -1 -1 0 0 51 609 8
78 0 600 602 658 0 +.01667 .01 0 0 -1 0 .01 0 0 -1 50 602 880 0 593 581 609 0 +.
01667 .01 0 0 -1 0 0 0 -1 51 581 881 0 572 574 602 0 +.01667 .01 .025 0 -1 0 .01
 0 0 -1 50 574 883 0 565 567 581 0 +.01667 .01 .025 0 -1 0 0 0 -1 51 567 884 0 5
58 560 574 0 +.01667 .01 -.025 0 -1 0 .01 0 0 -1 50 560 886 0 551 553 567 0 +.01
667 .01 -.025 0 -1 0 0 0 -1 51 553 887 0 544 546 560 0 +-.01667 .01 -.025 0 -1 0
 .01 0 0 -1 50 546 889 0 537 539 553 0 +-.01667 .01 -.025 0 -1 0 0 0 -1 51 539 8
90 0 530 532 546 0 +-.01667 .01 0 0 -1 0 .01 0 0 -1 50 532 892 0 525 595 539 0 +
-.01667 .01 0 0 -1 0 0 0 -1 51 595 893 0 586 588 532 0 +-.01667 .01 .025 0 -1 0
 .01 0 0 -1 50 588 895 0 579 0 595 0 +-.01667 .01 .025 0 -1 0 0 0 -1 83 3 834 .7
92156862745098 .819607843137255 .933333333333333 83 3 830 .792156862745098 .8196
07843137255 .933333333333333 83 3 825 .792156862745098 .819607843137255 .9333333
33333333 83 3 820 .792156862745098 .819607843137255 .933333333333333 15 817 148
 0 858 810 859 17 858 0 817 858 858 0 364 130 0 0 -15 859 149 0 365 810 0 17 365
 0 859 365 365 0 860 348 0 0 +17 860 0 424 860 860 0 365 348 0 0 -15 424 133 0 8
60 423 0 17 364 0 811 364 364 0 858 130 0 0 +15 811 152 0 364 803 0 83 3 814 .79
2156862745098 .819607843137255 .933333333333333 83 3 807 .792156862745098 .81960
7843137255 .933333333333333 15 804 238 0 861 796 862 17 861 0 804 861 861 0 362
 336 0 0 -15 862 239 0 360 796 0 17 360 0 862 360 360 0 863 358 0 0 +17 863 0 86
4 863 863 0 360 358 0 0 -15 864 176 0 863 12 0 17 362 0 797 362 362 0 861 336 0
 0 +15 797 242 0 362 789 0 83 3 800 .792156862745098 .819607843137255 .933333333
333333 83 3 793 .792156862745098 .819607843137255 .933333333333333 15 790 220 0
 865 782 866 17 865 0 790 865 865 0 357 355 0 0 -15 866 221 0 354 782 0 17 354 0
 866 354 354 0 867 352 0 0 +17 867 0 868 867 867 0 354 352 0 0 -15 868 182 0 867
 12 864 17 357 0 783 357 357 0 865 355 0 0 +15 783 224 0 357 775 0 83 3 786 .792
156862745098 .819607843137255 .933333333333333 83 3 779 .792156862745098 .819607
843137255 .933333333333333 15 776 202 0 869 768 870 17 869 0 776 869 869 0 347 3
45 0 0 -15 870 203 0 351 768 0 17 351 0 870 351 351 0 871 349 0 0 +17 871 0 413
 871 871 0 351 349 0 0 -15 413 188 0 871 12 868 17 347 0 769 347 347 0 869 345 0
 0 +15 769 206 0 347 761 0 83 3 772 .792156862745098 .819607843137255 .933333333
333333 83 3 765 .792156862745098 .819607843137255 .933333333333333 15 762 331 0
 872 754 873 17 872 0 762 872 872 0 344 330 0 0 -15 873 332 0 342 754 0 17 342 0
 873 342 342 0 874 340 0 0 +17 874 0 875 874 874 0 342 340 0 0 -15 875 293 0 874
 399 0 17 344 0 755 344 344 0 872 330 0 0 +15 755 335 0 344 747 0 83 3 758 .7921
56862745098 .819607843137255 .933333333333333 83 3 751 .792156862745098 .8196078
43137255 .933333333333333 15 748 313 0 876 740 877 17 876 0 748 876 876 0 335 33
3 0 0 -15 877 314 0 339 740 0 17 339 0 877 339 339 0 878 337 0 0 +17 878 0 400 8
78 878 0 339 337 0 0 -15 400 299 0 878 399 875 17 335 0 741 335 335 0 876 333 0
 0 +15 741 317 0 335 733 0 83 3 744 .792156862745098 .819607843137255 .933333333
333333 83 3 737 .792156862745098 .819607843137255 .933333333333333 15 734 458 0
 879 726 880 17 879 0 734 879 879 0 329 327 0 0 -15 880 459 0 332 726 0 17 332 0
 880 332 332 0 881 312 0 0 +17 881 0 882 881 881 0 332 312 0 0 -15 882 371 0 881
 443 0 17 329 0 727 329 329 0 879 327 0 0 +15 727 462 0 329 719 0 83 3 730 .7921
56862745098 .819607843137255 .933333333333333 83 3 723 .792156862745098 .8196078
43137255 .933333333333333 15 720 440 0 883 712 884 17 883 0 720 883 883 0 315 31
3 0 0 -15 884 441 0 311 712 0 17 311 0 884 311 311 0 885 309 0 0 +17 885 0 886 8
85 885 0 311 309 0 0 -15 886 377 0 885 443 882 17 315 0 713 315 315 0 883 313 0
 0 +15 713 444 0 315 705 0 83 3 716 .792156862745098 .819607843137255 .933333333
333333 83 3 709 .792156862745098 .819607843137255 .933333333333333 15 706 422 0
 887 698 888 17 887 0 706 887 887 0 321 319 0 0 -15 888 423 0 318 698 0 17 318 0
 888 318 318 0 889 316 0 0 +17 889 0 890 889 889 0 318 316 0 0 -15 890 383 0 889
 443 886 17 321 0 699 321 321 0 887 319 0 0 +15 699 426 0 321 691 0 83 3 702 .79
2156862745098 .819607843137255 .933333333333333 83 3 695 .792156862745098 .81960
7843137255 .933333333333333 15 692 404 0 891 684 892 17 891 0 692 891 891 0 326
 306 0 0 -15 892 405 0 324 684 0 17 324 0 892 324 324 0 893 322 0 0 +17 893 0 89
4 893 893 0 324 322 0 0 -15 894 389 0 893 443 890 17 326 0 685 326 326 0 891 306
 0 0 +15 685 408 0 326 677 0 83 3 688 .792156862745098 .819607843137255 .9333333
33333333 83 3 681 .792156862745098 .819607843137255 .933333333333333 15 678 641
 0 895 670 896 17 895 0 678 895 895 0 305 303 0 0 -15 896 642 0 308 670 0 17 308
 0 896 308 308 0 897 282 0 0 +17 897 0 898 897 897 0 308 282 0 0 -15 898 530 0 8
97 132 0 17 305 0 671 305 305 0 895 303 0 0 +15 671 645 0 305 663 0 83 3 674 .79
2156862745098 .819607843137255 .933333333333333 83 3 667 .792156862745098 .81960
7843137255 .933333333333333 15 664 623 0 899 656 900 17 899 0 664 899 899 0 281
 279 0 0 -15 900 624 0 285 656 0 17 285 0 900 285 285 0 901 283 0 0 +17 901 0 90
2 901 901 0 285 283 0 0 -15 902 536 0 901 132 898 17 281 0 657 281 281 0 899 279
 0 0 +15 657 627 0 281 649 0 83 3 660 .792156862745098 .819607843137255 .9333333
33333333 83 3 653 .792156862745098 .819607843137255 .933333333333333 15 650 605
 0 903 642 904 17 903 0 650 903 903 0 288 286 0 0 -15 904 606 0 291 642 0 17 291
 0 904 291 291 0 905 289 0 0 +17 905 0 906 905 905 0 291 289 0 0 -15 906 542 0 9
05 132 902 17 288 0 643 288 288 0 903 286 0 0 +15 643 609 0 288 635 0 83 3 646 .
792156862745098 .819607843137255 .933333333333333 83 3 639 .792156862745098 .819
607843137255 .933333333333333 15 636 587 0 907 628 908 17 907 0 636 907 907 0 29
4 292 0 0 -15 908 588 0 297 628 0 17 297 0 908 297 297 0 909 295 0 0 +17 909 0 9
10 909 909 0 297 295 0 0 -15 910 548 0 909 132 906 17 294 0 629 294 294 0 907 29
2 0 0 +15 629 591 0 294 621 0 83 3 632 .792156862745098 .819607843137255 .933333
333333333 83 3 625 .792156862745098 .819607843137255 .933333333333333 15 622 569
 0 911 614 912 17 911 0 622 911 911 0 300 298 0 0 -15 912 570 0 302 614 0 17 302
 0 912 302 302 0 913 276 0 0 +17 913 0 133 913 913 0 302 276 0 0 -15 133 554 0 9
13 132 910 17 300 0 615 300 300 0 911 298 0 0 +15 615 573 0 300 607 0 83 3 618 .
792156862745098 .819607843137255 .933333333333333 83 3 611 .792156862745098 .819
607843137255 .933333333333333 15 608 858 0 914 600 915 17 914 0 608 914 914 0 27
5 273 0 0 -15 915 859 0 278 600 0 17 278 0 915 278 278 0 916 252 0 0 +17 916 0 9
17 916 916 0 278 252 0 0 -15 917 724 0 916 390 0 17 275 0 601 275 275 0 914 273
 0 0 +15 601 862 0 275 593 0 83 3 604 .792156862745098 .819607843137255 .9333333
33333333 83 3 597 .792156862745098 .819607843137255 .933333333333333 15 594 840
 0 918 586 243 17 918 0 594 918 918 0 245 241 0 0 -15 243 841 0 240 586 0 17 245
 0 587 245 245 0 918 241 0 0 +15 587 844 0 245 579 0 83 3 590 .792156862745098 .
819607843137255 .933333333333333 83 3 583 .792156862745098 .819607843137255 .933
333333333333 15 580 822 0 919 572 920 17 919 0 580 919 919 0 270 268 0 0 -15 920
 823 0 272 572 0 17 272 0 920 272 272 0 921 246 0 0 +17 921 0 922 921 921 0 272
 246 0 0 -15 922 736 0 921 390 923 15 923 730 0 244 390 917 17 244 0 923 244 244
 0 240 234 0 0 -17 270 0 573 270 270 0 919 268 0 0 +15 573 826 0 270 565 0 83 3
 576 .792156862745098 .819607843137255 .933333333333333 83 3 569 .79215686274509
8 .819607843137255 .933333333333333 15 566 804 0 924 558 925 17 924 0 566 924 92
4 0 264 262 0 0 -15 925 805 0 267 558 0 17 267 0 925 267 267 0 926 265 0 0 +17 9
26 0 927 926 926 0 267 265 0 0 -15 927 742 0 926 390 922 17 264 0 559 264 264 0
 924 262 0 0 +15 559 808 0 264 551 0 83 3 562 .792156862745098 .819607843137255
 .933333333333333 83 3 555 .792156862745098 .819607843137255 .933333333333333 15
 552 786 0 928 544 929 17 928 0 552 928 928 0 258 256 0 0 -15 929 787 0 261 544
 0 17 261 0 929 261 261 0 930 259 0 0 +17 930 0 931 930 930 0 261 259 0 0 -15 93
1 748 0 930 390 927 17 258 0 545 258 258 0 928 256 0 0 +15 545 790 0 258 537 0 8
3 3 548 .792156862745098 .819607843137255 .933333333333333 83 3 541 .79215686274
5098 .819607843137255 .933333333333333 15 538 768 0 932 530 933 17 932 0 538 932
 932 0 251 249 0 0 -15 933 769 0 255 530 0 17 255 0 933 255 255 0 934 253 0 0 +1
7 934 0 391 934 934 0 255 253 0 0 -15 391 754 0 934 390 931 17 251 0 531 251 251
 0 932 249 0 0 +15 531 772 0 251 525 0 83 3 534 .792156862745098 .81960784313725
5 .933333333333333 83 3 527 .792156862745098 .819607843137255 .933333333333333 8
3 3 522 .792156862745098 .819607843137255 .933333333333333 53 15 1220 0 418 516
 5 0 +.045 .095 .045 .005 0 0 1 1 0 0 53 516 1221 0 428 511 15 0 +-.045 .095 .04
5 .005 0 0 1 1 0 0 51 511 1222 0 416 506 516 0 +.045 .1 .045 0 1 0 .005 0 0 1 51
 506 1223 0 421 501 511 0 +.045 .095 0 0 0 -1 .005 -1 0 0 51 501 1224 0 371 496
 506 0 +0 .095 -.045 -1 0 0 .005 0 0 1 51 496 1225 0 429 491 501 0 +-.045 .095 .
05 0 0 1 .005 1 0 0 51 491 1226 0 403 486 496 0 +-.045 .1 .045 0 -1 0 .005 0 0 -
1 51 486 1227 0 410 480 491 0 +0 .005 .045 -1 0 0 .005 0 0 1 53 480 1228 0 440 4
41 486 0 +.045 .005 .045 .005 0 0 1 1 0 0 53 441 1229 0 374 433 480 0 +.045 .095
 -.045 .005 0 0 1 1 0 0 83 3 518 .792156862745098 .819607843137255 .933333333333
333 83 3 513 .792156862745098 .819607843137255 .933333333333333 83 3 508 .792156
862745098 .819607843137255 .933333333333333 83 3 503 .792156862745098 .819607843
137255 .933333333333333 83 3 498 .792156862745098 .819607843137255 .933333333333
333 83 3 493 .792156862745098 .819607843137255 .933333333333333 83 3 488 .792156
862745098 .819607843137255 .933333333333333 81 1 482 1418 471 374 0 439 476 435
 935 83 3 483 .792156862745098 .819607843137255 .933333333333333 81 1 439 1568 4
34 374 482 0 436 442 936 81 1 435 1419 471 431 0 432 482 472 937 83 3 935 .79215
6862745098 .819607843137255 .933333333333333 81 1 472 1420 471 406 0 436 435 466
 938 83 3 937 .792156862745098 .819607843137255 .933333333333333 81 1 436 1567 4
34 406 472 0 432 439 939 83 3 938 .792156862745098 .819607843137255 .93333333333
3333 82 1 939 -1409285949 82 1 936 -1407647549 15 479 1124 0 215 440 0 17 215 0
 479 218 387 41 415 213 0 0 +17 218 0 479 387 215 77 409 216 0 195 +17 387 0 479
 215 218 68 195 193 0 385 -17 385 0 384 195 380 68 67 150 0 0 -17 67 0 448 156 7
0 65 385 150 0 377 +15 448 1007 0 67 443 894 17 156 0 448 73 67 62 377 154 0 0 +
17 70 0 448 67 73 68 417 148 0 415 +17 73 0 448 70 156 71 375 152 0 226 +17 375
 0 420 373 226 62 73 152 0 156 -82 1 475 -1411514173 83 3 474 .792156862745098 .
819607843137255 .933333333333333 79 14 470 SWEntUnchanged82 1 447 37552323 82 1
 437 -1408499517 19 13 95 0 1 0 8 4 S0 74 4 CI16 index_map_offset0 0 1 dCCZ20 11
 2 0 0 831 842 0 0 0 0 0 0 0 0 0 0 0 0 0 0 0 0 0 0 1 0 
